<svg width="23" height="18" viewBox="0 0 23 18" fill="none" xmlns="http://www.w3.org/2000/svg">
<path d="M18.75 3H2.25V1.125C2.25 0.826631 2.13147 0.540483 1.9205 0.329505C1.70952 0.118526 1.42337 0 1.125 0C0.826631 0 0.540483 0.118526 0.329505 0.329505C0.118526 0.540483 0 0.826631 0 1.125V16.125C0 16.4234 0.118526 16.7095 0.329505 16.9205C0.540483 17.1315 0.826631 17.25 1.125 17.25C1.42337 17.25 1.70952 17.1315 1.9205 16.9205C2.13147 16.7095 2.25 16.4234 2.25 16.125V13.5H20.625V16.125C20.625 16.4234 20.7435 16.7095 20.9545 16.9205C21.1655 17.1315 21.4516 17.25 21.75 17.25C22.0484 17.25 22.3345 17.1315 22.5455 16.9205C22.7565 16.7095 22.875 16.4234 22.875 16.125V7.125C22.8738 6.03136 22.4388 4.98287 21.6654 4.20955C20.8921 3.43624 19.8436 3.00124 18.75 3ZM8.25 11.25H2.25V5.25H8.25V11.25ZM20.625 11.25H10.5V5.25H18.75C19.2473 5.25 19.7242 5.44754 20.0758 5.79917C20.4275 6.15081 20.625 6.62772 20.625 7.125V11.25Z" fill="white"/>
</svg>
