<svg width="16" height="14" viewBox="0 0 16 14" fill="none" xmlns="http://www.w3.org/2000/svg">
<path d="M0.276904 7.22897L5.9019 12.854C6.07802 13.0301 6.31689 13.129 6.56597 13.129C6.81504 13.129 7.05391 13.0301 7.23003 12.854C7.40615 12.6778 7.50509 12.439 7.50509 12.1899C7.50509 11.9408 7.40615 11.702 7.23003 11.5258L3.20581 7.50319H14.6902C14.9388 7.50319 15.1773 7.40442 15.3531 7.2286C15.5289 7.05279 15.6277 6.81433 15.6277 6.56569C15.6277 6.31705 15.5289 6.07859 15.3531 5.90278C15.1773 5.72696 14.9388 5.62819 14.6902 5.62819H3.20581L7.22847 1.60319C7.40459 1.42707 7.50353 1.1882 7.50353 0.939126C7.50353 0.690054 7.40459 0.451184 7.22847 0.275064C7.05235 0.0989432 6.81348 2.6244e-09 6.5644 0C6.31533 -2.6244e-09 6.07646 0.0989432 5.90034 0.275064L0.275342 5.90006C0.187927 5.98728 0.118602 6.0909 0.0713491 6.20498C0.0240955 6.31907 -0.000153542 6.44136 -8.58307e-06 6.56484C0.000136375 6.68832 0.0246744 6.81056 0.0721951 6.92453C0.119717 7.0385 0.189284 7.14196 0.276904 7.22897Z" fill="#00111F"/>
</svg>
