<svg width="22" height="22" viewBox="0 0 22 22" fill="none" xmlns="http://www.w3.org/2000/svg">
<path d="M20.3203 8.25469C19.9903 7.91063 19.65 7.55531 19.5384 7.28625C19.4391 7.04625 19.4316 6.55219 19.425 6.11719C19.4109 5.17969 19.3931 4.01344 18.5644 3.18563C17.7356 2.35781 16.5703 2.34187 15.6328 2.325C15.1978 2.31844 14.7047 2.31094 14.4637 2.21156C14.1947 2.1 13.8394 1.75969 13.4953 1.42969C12.8316 0.793125 12.0047 0 10.875 0C9.74531 0 8.91844 0.793125 8.25469 1.42969C7.91063 1.75969 7.55531 2.1 7.28625 2.21156C7.04625 2.31094 6.55219 2.31844 6.11719 2.325C5.17969 2.34375 4.01344 2.35687 3.1875 3.1875C2.36156 4.01813 2.34375 5.17969 2.325 6.11719C2.31844 6.55219 2.31094 7.04625 2.21156 7.28625C2.1 7.55531 1.75969 7.91063 1.42969 8.25469C0.793125 8.91844 0 9.75 0 10.875C0 12 0.793125 12.8316 1.42969 13.5C1.75969 13.8441 2.1 14.1994 2.21156 14.4684C2.31094 14.7084 2.31844 15.2025 2.325 15.6375C2.33906 16.575 2.35687 17.7413 3.18563 18.5691C4.01437 19.3969 5.17969 19.4128 6.11719 19.4297C6.55219 19.4363 7.04531 19.4438 7.28625 19.5431C7.55531 19.6547 7.91063 19.995 8.25469 20.325C8.91844 20.9569 9.75 21.75 10.875 21.75C12 21.75 12.8316 20.9569 13.4953 20.3203C13.8394 19.9903 14.1947 19.65 14.4637 19.5384C14.7037 19.4391 15.1978 19.4316 15.6328 19.425C16.5703 19.4109 17.7366 19.3931 18.5644 18.5644C19.3922 17.7356 19.4081 16.5703 19.425 15.6328C19.4316 15.1978 19.4391 14.7037 19.5384 14.4637C19.65 14.1947 19.9903 13.8394 20.3203 13.4953C20.9569 12.8316 21.75 12.0047 21.75 10.875C21.75 9.74531 20.9569 8.91844 20.3203 8.25469ZM18.6966 11.9381C18.2447 12.4069 17.7328 12.9431 17.46 13.6031C17.1956 14.2406 17.1853 14.9316 17.1788 15.5991C17.1713 16.1016 17.1609 16.7906 16.9772 16.9734C16.7934 17.1562 16.1053 17.1675 15.6028 17.175C14.9344 17.1853 14.2444 17.1956 13.6069 17.4562C12.9506 17.73 12.4134 18.2419 11.9419 18.6937C11.6044 19.0162 11.1 19.5 10.875 19.5C10.65 19.5 10.1456 19.0162 9.81188 18.6966C9.34313 18.2447 8.80688 17.7328 8.14688 17.4591C7.50938 17.1956 6.81844 17.1853 6.15094 17.1778C5.64844 17.1703 4.95937 17.16 4.77656 16.9762C4.59375 16.7925 4.5825 16.1044 4.575 15.6019C4.56469 14.9334 4.55437 14.2434 4.29375 13.6059C4.02094 12.9497 3.50906 12.4116 3.05719 11.9409C2.73375 11.6044 2.25 11.1 2.25 10.875C2.25 10.65 2.73375 10.1456 3.05344 9.81188C3.50531 9.34313 4.01719 8.80688 4.29 8.14688C4.55437 7.50938 4.56469 6.81844 4.57125 6.15094C4.5825 5.64844 4.59375 4.95937 4.78125 4.78125C4.96875 4.60313 5.65313 4.58719 6.15563 4.57969C6.82406 4.56938 7.51406 4.55906 8.15156 4.29844C8.80781 4.02469 9.345 3.51281 9.81656 3.06094C10.1456 2.73375 10.65 2.25 10.875 2.25C11.1 2.25 11.6044 2.73375 11.9381 3.05344C12.4069 3.50531 12.9431 4.01719 13.6031 4.29094C14.2406 4.55438 14.9316 4.56469 15.5991 4.57219C16.1016 4.57969 16.7906 4.59 16.9734 4.77375C17.1562 4.9575 17.1675 5.64563 17.175 6.14813C17.1853 6.81656 17.1956 7.50656 17.4562 8.14406C17.7291 8.80031 18.2409 9.33844 18.6928 9.80906C19.0125 10.1428 19.4963 10.6472 19.4963 10.8722C19.4963 11.0972 19.0162 11.6044 18.6966 11.9381ZM6.375 7.875C6.375 7.57833 6.46297 7.28832 6.6278 7.04165C6.79262 6.79497 7.02689 6.60271 7.30097 6.48918C7.57506 6.37565 7.87666 6.34594 8.16763 6.40382C8.45861 6.4617 8.72588 6.60456 8.93566 6.81434C9.14544 7.02412 9.2883 7.29139 9.34618 7.58236C9.40406 7.87334 9.37435 8.17494 9.26082 8.44903C9.14729 8.72311 8.95503 8.95738 8.70835 9.1222C8.46168 9.28703 8.17167 9.375 7.875 9.375C7.47718 9.375 7.09564 9.21696 6.81434 8.93566C6.53304 8.65436 6.375 8.27282 6.375 7.875ZM15.375 13.875C15.375 14.1717 15.287 14.4617 15.1222 14.7084C14.9574 14.955 14.7231 15.1473 14.449 15.2608C14.1749 15.3744 13.8733 15.4041 13.5824 15.3462C13.2914 15.2883 13.0241 15.1454 12.8143 14.9357C12.6046 14.7259 12.4617 14.4586 12.4038 14.1676C12.3459 13.8767 12.3756 13.5751 12.4892 13.301C12.6027 13.0269 12.795 12.7926 13.0416 12.6278C13.2883 12.463 13.5783 12.375 13.875 12.375C14.2728 12.375 14.6544 12.533 14.9357 12.8143C15.217 13.0956 15.375 13.4772 15.375 13.875ZM15.4209 6.32906C15.5258 6.43358 15.609 6.55777 15.6658 6.69452C15.7226 6.83126 15.7518 6.97787 15.7518 7.12594C15.7518 7.274 15.7226 7.42061 15.6658 7.55736C15.609 7.6941 15.5258 7.8183 15.4209 7.92281L7.92094 15.4228C7.70959 15.6342 7.42295 15.7529 7.12406 15.7529C6.82518 15.7529 6.53853 15.6342 6.32719 15.4228C6.11584 15.2115 5.99711 14.9248 5.99711 14.6259C5.99711 14.3271 6.11584 14.0404 6.32719 13.8291L13.8272 6.32906C13.9317 6.22418 14.0559 6.14097 14.1926 6.08418C14.3294 6.0274 14.476 5.99818 14.6241 5.99818C14.7721 5.99818 14.9187 6.0274 15.0555 6.08418C15.1922 6.14097 15.3164 6.22418 15.4209 6.32906Z" fill="white"/>
</svg>
