<svg width="90" height="18" viewBox="0 0 90 18" fill="none" xmlns="http://www.w3.org/2000/svg">
<path d="M16.4739 8.07532L13.3099 10.8056L14.2738 14.8886C14.327 15.1103 14.3133 15.3427 14.2345 15.5566C14.1556 15.7705 14.0152 15.9562 13.8308 16.0902C13.6465 16.2243 13.4265 16.3008 13.1988 16.3099C12.971 16.319 12.7457 16.2605 12.5512 16.1416L9.00044 13.9563L5.44755 16.1416C5.25309 16.2598 5.028 16.3178 4.80063 16.3083C4.57327 16.2988 4.35379 16.2223 4.16983 16.0883C3.98588 15.9544 3.84568 15.769 3.76688 15.5555C3.68807 15.342 3.6742 15.11 3.727 14.8886L4.6945 10.8056L1.53044 8.07532C1.35839 7.92662 1.23395 7.73052 1.17268 7.51152C1.11141 7.29252 1.11601 7.06032 1.18592 6.84392C1.25583 6.62752 1.38794 6.43651 1.56576 6.29475C1.74358 6.15298 1.95922 6.06675 2.18575 6.04681L6.33419 5.71212L7.9345 1.83931C8.02113 1.62824 8.16855 1.4477 8.35805 1.32064C8.54754 1.19358 8.77053 1.12573 8.99868 1.12573C9.22683 1.12573 9.44983 1.19358 9.63932 1.32064C9.82881 1.4477 9.97624 1.62824 10.0628 1.83931L11.6624 5.71212L15.8109 6.04681C16.0379 6.06601 16.2541 6.15176 16.4326 6.29333C16.6111 6.4349 16.7438 6.62598 16.8141 6.84264C16.8845 7.05931 16.8893 7.29191 16.828 7.51131C16.7668 7.73071 16.6421 7.92716 16.4697 8.07603L16.4739 8.07532Z" fill="#FFCC02"/>
<path d="M34.4739 8.07532L31.3099 10.8056L32.2738 14.8886C32.327 15.1103 32.3133 15.3427 32.2345 15.5566C32.1556 15.7705 32.0152 15.9562 31.8308 16.0902C31.6465 16.2243 31.4265 16.3008 31.1988 16.3099C30.971 16.319 30.7457 16.2605 30.5512 16.1416L27.0004 13.9563L23.4475 16.1416C23.253 16.2598 23.028 16.3178 22.8006 16.3083C22.5732 16.2988 22.3537 16.2223 22.1698 16.0883C21.9858 15.9544 21.8456 15.769 21.7668 15.5555C21.688 15.342 21.6742 15.11 21.727 14.8886L22.6945 10.8056L19.5304 8.07532C19.3583 7.92662 19.2339 7.73052 19.1726 7.51152C19.1114 7.29252 19.116 7.06032 19.1859 6.84392C19.2558 6.62752 19.3879 6.43651 19.5657 6.29475C19.7435 6.15298 19.9592 6.06675 20.1857 6.04681L24.3342 5.71212L25.9345 1.83931C26.0211 1.62824 26.1685 1.4477 26.358 1.32064C26.5475 1.19358 26.7705 1.12573 26.9986 1.12573C27.2268 1.12573 27.4498 1.19358 27.6393 1.32064C27.8288 1.4477 27.9762 1.62824 28.0628 1.83931L29.6624 5.71212L33.8109 6.04681C34.0379 6.06601 34.2541 6.15176 34.4326 6.29333C34.6111 6.4349 34.7438 6.62598 34.8141 6.84264C34.8845 7.05931 34.8893 7.29191 34.828 7.51131C34.7668 7.73071 34.6421 7.92716 34.4697 8.07603L34.4739 8.07532Z" fill="#FFCC02"/>
<path d="M52.4739 8.07532L49.3098 10.8056L50.2738 14.8886C50.327 15.1103 50.3133 15.3427 50.2345 15.5566C50.1556 15.7705 50.0151 15.9562 49.8308 16.0902C49.6465 16.2243 49.4265 16.3008 49.1988 16.3099C48.971 16.319 48.7457 16.2605 48.5512 16.1416L45.0004 13.9563L41.4475 16.1416C41.253 16.2598 41.0279 16.3178 40.8006 16.3083C40.5732 16.2988 40.3537 16.2223 40.1698 16.0883C39.9858 15.9544 39.8456 15.769 39.7668 15.5555C39.688 15.342 39.6741 15.11 39.7269 14.8886L40.6944 10.8056L37.5304 8.07532C37.3583 7.92662 37.2339 7.73052 37.1726 7.51152C37.1114 7.29252 37.116 7.06032 37.1859 6.84392C37.2558 6.62752 37.3879 6.43651 37.5657 6.29475C37.7435 6.15298 37.9592 6.06675 38.1857 6.04681L42.3341 5.71212L43.9344 1.83931C44.0211 1.62824 44.1685 1.4477 44.358 1.32064C44.5475 1.19358 44.7705 1.12573 44.9986 1.12573C45.2268 1.12573 45.4498 1.19358 45.6393 1.32064C45.8288 1.4477 45.9762 1.62824 46.0628 1.83931L47.6624 5.71212L51.8109 6.04681C52.0378 6.06601 52.2541 6.15176 52.4326 6.29333C52.611 6.4349 52.7438 6.62598 52.8141 6.84264C52.8844 7.05931 52.8893 7.29191 52.828 7.51131C52.7668 7.73071 52.6421 7.92716 52.4697 8.07603L52.4739 8.07532Z" fill="#FFCC02"/>
<path d="M70.4739 8.07532L67.3098 10.8056L68.2738 14.8886C68.327 15.1103 68.3133 15.3427 68.2345 15.5566C68.1556 15.7705 68.0151 15.9562 67.8308 16.0902C67.6465 16.2243 67.4265 16.3008 67.1988 16.3099C66.971 16.319 66.7457 16.2605 66.5512 16.1416L63.0004 13.9563L59.4475 16.1416C59.253 16.2598 59.0279 16.3178 58.8006 16.3083C58.5732 16.2988 58.3537 16.2223 58.1698 16.0883C57.9858 15.9544 57.8456 15.769 57.7668 15.5555C57.688 15.342 57.6741 15.11 57.7269 14.8886L58.6944 10.8056L55.5304 8.07532C55.3583 7.92662 55.2339 7.73052 55.1726 7.51152C55.1114 7.29252 55.116 7.06032 55.1859 6.84392C55.2558 6.62752 55.3879 6.43651 55.5657 6.29475C55.7435 6.15298 55.9592 6.06675 56.1857 6.04681L60.3341 5.71212L61.9344 1.83931C62.0211 1.62824 62.1685 1.4477 62.358 1.32064C62.5475 1.19358 62.7705 1.12573 62.9986 1.12573C63.2268 1.12573 63.4498 1.19358 63.6393 1.32064C63.8288 1.4477 63.9762 1.62824 64.0628 1.83931L65.6624 5.71212L69.8109 6.04681C70.0378 6.06601 70.2541 6.15176 70.4326 6.29333C70.611 6.4349 70.7438 6.62598 70.8141 6.84264C70.8844 7.05931 70.8893 7.29191 70.828 7.51131C70.7668 7.73071 70.6421 7.92716 70.4697 8.07603L70.4739 8.07532Z" fill="#FFCC02"/>
<path d="M89.4174 6.8385C89.3471 6.62231 89.2143 6.43176 89.0359 6.29087C88.8575 6.14998 88.6414 6.06505 88.4147 6.04678L84.2663 5.71209L82.6646 1.83858C82.578 1.62751 82.4305 1.44697 82.241 1.31991C82.0516 1.19285 81.8286 1.125 81.6004 1.125C81.3723 1.125 81.1493 1.19285 80.9598 1.31991C80.7703 1.44697 80.6228 1.62751 80.5362 1.83858L78.9359 5.71139L74.7854 6.04678C74.5584 6.06598 74.3421 6.15173 74.1636 6.2933C73.9852 6.43487 73.8525 6.62595 73.7821 6.84261C73.7118 7.05928 73.7069 7.29188 73.7682 7.51128C73.8295 7.73068 73.9541 7.92713 74.1265 8.076L77.2906 10.8063L76.3266 14.8886C76.2734 15.1102 76.2871 15.3427 76.366 15.5566C76.4448 15.7704 76.5853 15.9561 76.7696 16.0902C76.954 16.2243 77.1739 16.3007 77.4017 16.3099C77.6294 16.319 77.8548 16.2604 78.0493 16.1416L81.6001 13.9563L85.1529 16.1416C85.3474 16.2598 85.5725 16.3178 85.7999 16.3083C86.0272 16.2988 86.2467 16.2223 86.4307 16.0883C86.6146 15.9543 86.7548 15.7689 86.8336 15.5555C86.9124 15.342 86.9263 15.1099 86.8735 14.8886L85.906 10.8055L89.0701 8.0753C89.2439 7.92667 89.3697 7.7298 89.4315 7.50963C89.4933 7.28946 89.4884 7.05588 89.4174 6.8385ZM88.3388 7.22311L84.9146 10.1763C84.8365 10.2436 84.7784 10.331 84.7467 10.4291C84.7149 10.5272 84.7107 10.6321 84.7346 10.7324L84.6966 11.0394C83.6504 6.62376 81.1493 10.8327 84.2663 13C83.3257 9.01426 77.4319 7.2473 82.6646 12C79.5603 9.81822 81.6247 12.5 85.7422 15.1818L83.3579 12.1338C86.2099 9.74712 87.8691 8.73128 84.7346 10.7324V6.93318C84.7467 5.75822 81.619 2.25553 81.6247 2.26819L83.3579 6.45881C83.3974 6.5546 83.4627 6.63759 83.5464 6.69864C83.6302 6.75968 83.7292 6.7964 83.8325 6.80475L88.3261 7.16756C88.3374 7.16756 88.3437 7.16756 88.3501 7.18795C88.3564 7.20834 88.3501 7.21608 88.3388 7.22311Z" fill="#FFCC02"/>
</svg>
