<svg id="Layer_1" data-name="Layer 1" xmlns="http://www.w3.org/2000/svg" viewBox="0 0 321.97 440.89"><defs><style>.cls-1{fill:#f26c77;}</style></defs><path class="cls-1" d="M313.36,0c6.44,3.12,8.54,8.35,8.48,15.33q-.31,36.14,0,72.29c0,3.68-1.09,4.43-4.58,4.43q-156.21-.14-312.44,0C1.18,92.06,0,91.37,0,87.42.22,64,.29,40.66,0,17.28-.09,10.07,1.27,4.07,7.65,0ZM59.19,45.64c0-4.15.12-8.32,0-12.47-.19-5.48-3.26-9-7.76-9.08s-8,3.38-8.07,9.13q-.24,12.68,0,25.37c.1,5.56,3.18,9,7.68,9.09s8-3.51,8.14-9.14C59.31,54.25,59.19,49.94,59.19,45.64Zm24.16.15c0,4.73-.12,9.46,0,14.18a7.75,7.75,0,0,0,15.49.21q.32-14.18,0-28.35a7.76,7.76,0,1,0-15.51.22C83.24,36.63,83.35,41.21,83.35,45.79Zm55.41.1c0-4.58.12-9.17,0-13.75s-3.13-7.77-7.28-8a7.6,7.6,0,0,0-8.14,7.18c-.37,9.72-.37,19.47,0,29.19a7.43,7.43,0,0,0,8.11,7.12c4.26-.23,7.14-3.23,7.31-8C138.89,55.06,138.77,50.47,138.76,45.89Z"/><path class="cls-1" d="M160.76,391q-78.13,0-156.28.08c-3.57,0-4.46-.88-4.45-4.46Q.2,249.29,0,112c0-3.72,1.08-4.39,4.55-4.38q46.28.21,92.56,0c3.39,0,4.29.85,4.27,4.24,0,6.7-1,13.51.94,20.1a28,28,0,0,0,27.07,20.51q31.43.21,62.86,0c15.39-.12,27-11.88,27.29-27.33.1-4.73.12-9.47,0-14.2-.06-2.22.27-3.3,2.94-3.3q48.23.15,96.44,0c2.33,0,3.11.77,2.83,3a22.19,22.19,0,0,0,0,2.58q0,136.25.09,272.5c0,4.13-.68,5.47-5.23,5.45C264.67,390.91,212.71,391,160.76,391Z"/><path class="cls-1" d="M161.26,406.76q77.91,0,155.81-.1c4.08,0,5.1,1.17,4.87,5-.32,5.43,0,10.9-.1,16.35-.12,8.13-4.82,12.85-12.83,12.85H12.87c-7.51,0-12.28-4.2-12.66-11.65-.34-6.59,0-13.2-.14-19.8,0-2.11.81-2.84,2.79-2.68,1,.07,2,0,3,0Z"/><path class="cls-1" d="M160.5,107.65c13.2,0,26.41.13,39.6-.09,3.34-.06,4.13.93,3.93,4.06-.29,4.29,0,8.61-.1,12.91-.18,7.26-4.94,12.22-12.15,12.26q-30.76.15-61.55,0c-8.22,0-13.18-5.34-13.21-13.62,0-4,.18-8-.07-12-.17-2.82.7-3.57,3.52-3.54C133.81,107.74,147.16,107.65,160.5,107.65Z"/></svg>