<svg id="Layer_1" data-name="Layer 1" xmlns="http://www.w3.org/2000/svg" viewBox="0 0 337.48 263.58"><defs><style>.cls-1{fill:#f26c77;}</style></defs><path class="cls-1" d="M167.79,29.94a101.66,101.66,0,0,1,101.6,102.31c0,56.09-45.69,101.27-102.3,101.21C111,233.41,65.4,187.13,65.8,130.79,66.2,75.17,111.67,29.9,167.79,29.94Zm-.38,179.58c42.13.42,77.58-34.57,78-77S211.2,54.4,169,53.89a78.08,78.08,0,0,0-79.11,77.39C89.36,173.82,124.32,209.09,167.41,209.52Z"/><path class="cls-1" d="M47.92,49.27c0,13.34-.07,26.68,0,40a23.87,23.87,0,0,1-5.76,16.13,26.49,26.49,0,0,0-6.27,17.88c.06,15,.16,29.92,0,44.88-.23,19,2.23,37.73,5.59,56.38.89,4.89,1.78,9.78,2.52,14.69,1.76,11.54-5.14,21.57-16.34,23.89-10.31,2.14-20.86-4.72-23.48-15.4-1.54-6.27.37-12.38,1.46-18.45,3.83-21.48,6.84-43,6.39-64.9-.28-13.59-.1-27.18,0-40.77a26.84,26.84,0,0,0-6.3-18.24A24,24,0,0,1,0,89.24C.08,61.81,0,34.38,0,7,.05,2.68,2.08.2,5.64,0,9.56-.2,12,2.4,12,7c0,16.58.07,33.16-.06,49.74,0,2.63.66,3.23,3.25,3.3C18,60.05,18,58.76,18,56.67Q17.95,32,18,7.3C18,2.54,20.12,0,24,0s6,2.57,6,7.34c0,16.46,0,32.91,0,49.37,0,2.16.14,3.29,2.88,3.27s3.22-.8,3.2-3.35c-.12-16.46-.07-32.91-.06-49.37C36,2.52,38.09,0,42,0s5.93,2.58,5.93,7.37Q47.94,28.32,47.92,49.27Z"/><path class="cls-1" d="M329.25.09V4.45c0,53.6.18,107.2-.09,160.8-.11,21.53,2.61,42.68,6.38,63.77a115.58,115.58,0,0,1,1.89,12.9c.54,8.51-3.15,15.05-10.61,19.05s-15,3.37-21.76-1.67S296,247,297.31,238.79c2.51-15.2,5.61-30.32,7.05-45.68,1.49-15.78.86-31.63,1-47.45,0-1.75-.66-2.09-2.18-2-2,.1-4-.17-6,.07-2.95.35-3.95-.41-3.94-3.69.16-30.42,0-60.83.12-91.25C293.42,27,308,7.14,329.25.09Z"/><path class="cls-1" d="M167.79,65.86a65.84,65.84,0,1,1-.5,131.68c-36.4,0-65.54-29.54-65.49-66.28A65.64,65.64,0,0,1,167.79,65.86Z"/></svg>