<svg width="24" height="24" viewBox="0 0 24 24" fill="none" xmlns="http://www.w3.org/2000/svg">
<path d="M2.32429 11.3991C2.4424 11.4879 2.57686 11.5527 2.72 11.5896C2.86314 11.6265 3.01214 11.6348 3.1585 11.6141C3.30486 11.5934 3.4457 11.544 3.57297 11.4688C3.70024 11.3936 3.81144 11.2941 3.90023 11.1759C4.31938 10.6169 4.86295 10.1631 5.48789 9.85056C6.11283 9.53802 6.80197 9.37531 7.5007 9.37531C8.19943 9.37531 8.88857 9.53802 9.51351 9.85056C10.1385 10.1631 10.682 10.6169 11.1012 11.1759C11.2803 11.4145 11.5469 11.5721 11.8423 11.6141C12.1376 11.6561 12.4376 11.5791 12.6762 11.4C12.7605 11.336 12.8356 11.2606 12.8993 11.1759C13.3184 10.6169 13.862 10.1631 14.487 9.85056C15.1119 9.53802 15.801 9.37531 16.4998 9.37531C17.1985 9.37531 17.8876 9.53802 18.5126 9.85056C19.1375 10.1631 19.6811 10.6169 20.1002 11.1759C20.1881 11.2962 20.299 11.3978 20.4265 11.4749C20.554 11.5519 20.6955 11.6029 20.8428 11.6248C20.9902 11.6467 21.1404 11.6392 21.2848 11.6026C21.4292 11.566 21.5649 11.5011 21.684 11.4117C21.8031 11.3222 21.9033 11.21 21.9787 11.0816C22.0541 10.9531 22.1032 10.8109 22.1233 10.6633C22.1433 10.5157 22.1338 10.3656 22.0954 10.2217C22.0569 10.0778 21.9903 9.94295 21.8993 9.825C21.2735 8.98708 20.4615 8.30605 19.5274 7.83562C19.9362 7.27657 20.1821 6.61525 20.238 5.92497C20.2939 5.23469 20.1575 4.54241 19.8441 3.92489C19.5306 3.30736 19.0522 2.7887 18.462 2.42641C17.8718 2.06411 17.1928 1.87234 16.5002 1.87234C15.8077 1.87234 15.1287 2.06411 14.5385 2.42641C13.9482 2.7887 13.4699 3.30736 13.1564 3.92489C12.8429 4.54241 12.7066 5.23469 12.7625 5.92497C12.8184 6.61525 13.0643 7.27657 13.473 7.83562C12.9392 8.10334 12.4438 8.44169 12.0002 8.84156C11.5567 8.44136 11.0613 8.1027 10.5274 7.83468C10.9362 7.27563 11.1821 6.61431 11.238 5.92403C11.2939 5.23375 11.1575 4.54148 10.8441 3.92395C10.5306 3.30642 10.0522 2.78776 9.462 2.42547C8.87178 2.06318 8.19277 1.8714 7.50023 1.8714C6.80769 1.8714 6.12868 2.06318 5.53846 2.42547C4.94825 2.78776 4.46989 3.30642 4.15641 3.92395C3.84293 4.54148 3.70657 5.23375 3.76246 5.92403C3.81835 6.61431 4.0643 7.27563 4.47304 7.83468C3.53898 8.30511 2.727 8.98614 2.10117 9.82406C1.92195 10.0625 1.84477 10.3624 1.88661 10.6578C1.92846 10.9531 2.08589 11.2198 2.32429 11.3991ZM16.5002 4.125C16.7969 4.125 17.0869 4.21297 17.3336 4.37779C17.5803 4.54262 17.7725 4.77688 17.8861 5.05097C17.9996 5.32506 18.0293 5.62666 17.9714 5.91763C17.9135 6.2086 17.7707 6.47588 17.5609 6.68566C17.3511 6.89544 17.0838 7.0383 16.7929 7.09618C16.5019 7.15405 16.2003 7.12435 15.9262 7.01082C15.6521 6.89729 15.4178 6.70503 15.253 6.45835C15.0882 6.21168 15.0002 5.92167 15.0002 5.625C15.0002 5.22717 15.1583 4.84564 15.4396 4.56434C15.7209 4.28303 16.1024 4.125 16.5002 4.125ZM7.50023 4.125C7.7969 4.125 8.08691 4.21297 8.33359 4.37779C8.58026 4.54262 8.77252 4.77688 8.88605 5.05097C8.99958 5.32506 9.02929 5.62666 8.97141 5.91763C8.91353 6.2086 8.77067 6.47588 8.56089 6.68566C8.35111 6.89544 8.08384 7.0383 7.79287 7.09618C7.5019 7.15405 7.2003 7.12435 6.92621 7.01082C6.65212 6.89729 6.41785 6.70503 6.25303 6.45835C6.0882 6.21168 6.00023 5.92167 6.00023 5.625C6.00023 5.22717 6.15827 4.84564 6.43957 4.56434C6.72088 4.28303 7.10241 4.125 7.50023 4.125ZM19.5274 18.3347C19.9362 17.7756 20.1821 17.1143 20.238 16.424C20.2939 15.7338 20.1575 15.0415 19.8441 14.4239C19.5306 13.8064 19.0522 13.2878 18.462 12.9255C17.8718 12.5632 17.1928 12.3714 16.5002 12.3714C15.8077 12.3714 15.1287 12.5632 14.5385 12.9255C13.9482 13.2878 13.4699 13.8064 13.1564 14.4239C12.8429 15.0415 12.7066 15.7338 12.7625 16.424C12.8184 17.1143 13.0643 17.7756 13.473 18.3347C12.9394 18.6027 12.444 18.941 12.0002 19.3406C11.5564 18.941 11.0611 18.6027 10.5274 18.3347C10.9362 17.7756 11.1821 17.1143 11.238 16.424C11.2939 15.7338 11.1575 15.0415 10.8441 14.4239C10.5306 13.8064 10.0522 13.2878 9.462 12.9255C8.87178 12.5632 8.19277 12.3714 7.50023 12.3714C6.80769 12.3714 6.12868 12.5632 5.53846 12.9255C4.94825 13.2878 4.46989 13.8064 4.15641 14.4239C3.84293 15.0415 3.70657 15.7338 3.76246 16.424C3.81835 17.1143 4.0643 17.7756 4.47304 18.3347C3.53898 18.8051 2.727 19.4861 2.10117 20.3241C1.9219 20.5626 1.84474 20.8626 1.88668 21.1581C1.92861 21.4536 2.08619 21.7203 2.32476 21.8995C2.56333 22.0788 2.86335 22.156 3.1588 22.114C3.45426 22.0721 3.72096 21.9145 3.90023 21.6759C4.31938 21.1169 4.86295 20.6631 5.48789 20.3506C6.11283 20.038 6.80197 19.8753 7.5007 19.8753C8.19943 19.8753 8.88857 20.038 9.51351 20.3506C10.1385 20.6631 10.682 21.1169 11.1012 21.6759C11.2803 21.9145 11.5469 22.0721 11.8423 22.1141C12.1376 22.1561 12.4376 22.0791 12.6762 21.9C12.7605 21.836 12.8356 21.7606 12.8993 21.6759C13.3184 21.1169 13.862 20.6631 14.487 20.3506C15.1119 20.038 15.801 19.8753 16.4998 19.8753C17.1985 19.8753 17.8876 20.038 18.5126 20.3506C19.1375 20.6631 19.6811 21.1169 20.1002 21.6759C20.1881 21.7962 20.299 21.8978 20.4265 21.9749C20.554 22.0519 20.6955 22.1029 20.8428 22.1248C20.9902 22.1467 21.1404 22.1392 21.2848 22.1026C21.4292 22.066 21.5649 22.0011 21.684 21.9117C21.8031 21.8222 21.9033 21.71 21.9787 21.5816C22.0541 21.4531 22.1032 21.3109 22.1233 21.1633C22.1433 21.0157 22.1338 20.8656 22.0954 20.7217C22.0569 20.5778 21.9903 20.4429 21.8993 20.325C21.2738 19.4865 20.4618 18.8051 19.5274 18.3347ZM7.50023 14.625C7.7969 14.625 8.08691 14.713 8.33359 14.8778C8.58026 15.0426 8.77252 15.2769 8.88605 15.551C8.99958 15.8251 9.02929 16.1267 8.97141 16.4176C8.91353 16.7086 8.77067 16.9759 8.56089 17.1857C8.35111 17.3954 8.08384 17.5383 7.79287 17.5962C7.5019 17.6541 7.2003 17.6243 6.92621 17.5108C6.65212 17.3973 6.41785 17.205 6.25303 16.9584C6.0882 16.7117 6.00023 16.4217 6.00023 16.125C6.00023 15.7272 6.15827 15.3456 6.43957 15.0643C6.72088 14.783 7.10241 14.625 7.50023 14.625ZM16.5002 14.625C16.7969 14.625 17.0869 14.713 17.3336 14.8778C17.5803 15.0426 17.7725 15.2769 17.8861 15.551C17.9996 15.8251 18.0293 16.1267 17.9714 16.4176C17.9135 16.7086 17.7707 16.9759 17.5609 17.1857C17.3511 17.3954 17.0838 17.5383 16.7929 17.5962C16.5019 17.6541 16.2003 17.6243 15.9262 17.5108C15.6521 17.3973 15.4178 17.205 15.253 16.9584C15.0882 16.7117 15.0002 16.4217 15.0002 16.125C15.0002 15.7272 15.1583 15.3456 15.4396 15.0643C15.7209 14.783 16.1024 14.625 16.5002 14.625Z" fill="#FF6E76"/>
</svg>
