<svg id="Layer_1" data-name="Layer 1" xmlns="http://www.w3.org/2000/svg" viewBox="0 0 515.85 361.1"><defs><style>.cls-1{fill:#ff6e76;}</style></defs><path class="cls-1" d="M407.35,347.73c-3.87-1.59-8.06-1.44-12.08-2.23-19.52-3.84-37.46-11.57-54.37-21.85-25.15-15.29-46.8-34.77-66.72-56.27-22.19-23.95-42.33-49.48-58.1-78.22-11.21-20.42-19.77-41.84-23-65.07-3.59-25.88-.47-50.74,12.43-73.85a104,104,0,0,1,26.63-31.33c5.15-4.06,9.91-8.61,15.05-12.68,11.31-9,23-8.17,33.53,1.85a100.47,100.47,0,0,1,15.15,18.65c8.21,12.82,17.23,25.2,22.16,39.84s3,27.88-8.87,38.72c-6.16,5.65-12.26,11.43-19.27,16-14.7,9.69-16.65,22.34-11.09,38.25,5,14.39,13.69,26.7,23,38.52,12.34,15.66,25.54,30.59,41.08,43.22,8.54,6.94,17.52,13.18,28.53,15.68,9.47,2.16,17.78-.08,24.57-6.95a277.36,277.36,0,0,1,21.72-20c12.05-9.85,25.07-10.31,38.68-3.78a88.54,88.54,0,0,1,18.43,12c10.26,8.55,20.73,16.85,29.76,26.76a54.47,54.47,0,0,1,7.75,10.67c5.38,10,4.84,19.52-3.26,27.41C494.84,317,480.62,331,461.75,338.85a113.28,113.28,0,0,1-31.34,8.21c-.69.07-1.64-.45-2,.67Z"/><rect class="cls-1" x="156.03" y="224.02" width="44.58" height="137.08" rx="20"/><rect class="cls-1" x="78.02" y="224.02" width="44.58" height="137.08" rx="20"/><rect class="cls-1" y="224.02" width="44.58" height="137.08" rx="20"/></svg>