<svg width="18" height="20" viewBox="0 0 18 20" fill="none" xmlns="http://www.w3.org/2000/svg">
<path d="M3.75 5.6289V1.1289C3.75 0.830534 3.86853 0.544386 4.0795 0.333407C4.29048 0.122429 4.57663 0.00390234 4.875 0.00390234C5.17337 0.00390234 5.45952 0.122429 5.6705 0.333407C5.88147 0.544386 6 0.830534 6 1.1289V5.6289C6 5.92727 5.88147 6.21342 5.6705 6.4244C5.45952 6.63538 5.17337 6.7539 4.875 6.7539C4.57663 6.7539 4.29048 6.63538 4.0795 6.4244C3.86853 6.21342 3.75 5.92727 3.75 5.6289ZM18 1.1289V18.3789C18 18.6773 17.8815 18.9634 17.6705 19.1744C17.4595 19.3854 17.1734 19.5039 16.875 19.5039C16.5766 19.5039 16.2905 19.3854 16.0795 19.1744C15.8685 18.9634 15.75 18.6773 15.75 18.3789V14.2539H11.625C11.3266 14.2539 11.0405 14.1354 10.8295 13.9244C10.6185 13.7134 10.5 13.4273 10.5 13.1289C10.5351 11.3027 10.7655 9.48548 11.1872 7.70828C12.1331 3.79328 13.9462 1.15984 16.4316 0.0976523C16.6025 0.0243494 16.7889 -0.00544112 16.9741 0.0109462C17.1594 0.0273335 17.3377 0.0893875 17.4931 0.191556C17.6485 0.293724 17.7761 0.432821 17.8646 0.596399C17.953 0.759977 17.9996 0.942935 18 1.1289ZM15.75 3.27765C14.4937 4.59765 13.7812 6.5664 13.3847 8.19578C13.0879 9.44735 12.8929 10.7209 12.8016 12.0039H15.75V3.27765ZM9.375 1.03515C9.35014 0.736784 9.20776 0.460513 8.9792 0.267116C8.75064 0.073719 8.45462 -0.0209617 8.15625 0.00390234C7.85788 0.0287664 7.58161 0.171138 7.38821 0.399698C7.19482 0.628258 7.10014 0.924284 7.125 1.22265L7.5 5.67203C7.5 6.36822 7.22344 7.0359 6.73116 7.52818C6.23887 8.02047 5.57119 8.29703 4.875 8.29703C4.17881 8.29703 3.51113 8.02047 3.01884 7.52818C2.52656 7.0359 2.25 6.36822 2.25 5.67203L2.625 1.22265C2.63731 1.07492 2.6204 0.9262 2.57524 0.784997C2.53008 0.643794 2.45755 0.51287 2.36179 0.399698C2.26603 0.286527 2.14891 0.193325 2.01713 0.125414C1.88535 0.0575036 1.74149 0.0162138 1.59375 0.00390234C1.44601 -0.00840908 1.2973 0.00849899 1.15609 0.0536613C1.01489 0.0988235 0.883967 0.171356 0.770796 0.267116C0.657625 0.362876 0.564423 0.47999 0.496512 0.61177C0.428601 0.74355 0.387311 0.887415 0.375 1.03515L0 5.53515C0 5.56703 0 5.59796 0 5.6289C0.00179895 6.72568 0.372688 7.78994 1.05294 8.65029C1.73319 9.51064 2.68321 10.117 3.75 10.3717V18.3789C3.75 18.6773 3.86853 18.9634 4.0795 19.1744C4.29048 19.3854 4.57663 19.5039 4.875 19.5039C5.17337 19.5039 5.45952 19.3854 5.6705 19.1744C5.88147 18.9634 6 18.6773 6 18.3789V10.3717C7.06679 10.117 8.01681 9.51064 8.69706 8.65029C9.37731 7.78994 9.7482 6.72568 9.75 5.6289C9.75 5.59796 9.75 5.56703 9.75 5.53515L9.375 1.03515Z" fill="#FF6E76"/>
</svg>
