<svg width="24" height="24" viewBox="0 0 24 24" fill="none" xmlns="http://www.w3.org/2000/svg">
<path d="M21.3424 13.9819C21.4134 14.2715 21.3664 14.5775 21.2119 14.8326C21.0574 15.0877 20.8079 15.271 20.5183 15.3422L18.5805 15.8184L19.0867 17.7084C19.1641 17.9966 19.1237 18.3037 18.9746 18.5621C18.8256 18.8206 18.5799 19.0092 18.2917 19.0865C18.0036 19.1639 17.6965 19.1236 17.438 18.9745C17.1796 18.8254 16.9909 18.5797 16.9136 18.2915L16.2302 15.7415L13.1252 13.9481V17.5312L15.0452 19.4512C15.1498 19.5559 15.2328 19.6801 15.2895 19.8168C15.3461 19.9536 15.3752 20.1001 15.3752 20.2481C15.3752 20.3961 15.3461 20.5426 15.2895 20.6794C15.2328 20.8161 15.1498 20.9403 15.0452 21.045C14.9405 21.1496 14.8163 21.2326 14.6796 21.2893C14.5428 21.3459 14.3963 21.3751 14.2483 21.3751C14.1003 21.3751 13.9538 21.3459 13.817 21.2893C13.6803 21.2326 13.5561 21.1496 13.4514 21.045L12.0002 19.5937L10.5461 21.0487C10.4415 21.1534 10.3172 21.2364 10.1805 21.293C10.0438 21.3497 9.89722 21.3788 9.74923 21.3788C9.60124 21.3788 9.45469 21.3497 9.31796 21.293C9.18124 21.2364 9.057 21.1534 8.95235 21.0487C8.84771 20.9441 8.7647 20.8198 8.70806 20.6831C8.65143 20.5464 8.62228 20.3998 8.62228 20.2519C8.62228 20.1039 8.65143 19.9573 8.70806 19.8206C8.7647 19.6839 8.84771 19.5596 8.95235 19.455L10.8752 17.5312V13.9481L7.77017 15.7415L7.08673 18.2915C7.0094 18.5797 6.82077 18.8254 6.56232 18.9745C6.30387 19.1236 5.99678 19.1639 5.7086 19.0865C5.42043 19.0092 5.17478 18.8206 5.02569 18.5621C4.87659 18.3037 4.83628 17.9966 4.9136 17.7084L5.41985 15.8184L3.48204 15.3422C3.33528 15.3102 3.19642 15.2491 3.07364 15.1626C2.95085 15.0761 2.84664 14.9658 2.76715 14.8384C2.68765 14.7109 2.63448 14.5689 2.61078 14.4205C2.58707 14.2722 2.59331 14.1206 2.62912 13.9748C2.66493 13.8289 2.72959 13.6917 2.81929 13.5712C2.90899 13.4507 3.0219 13.3494 3.15138 13.2733C3.28085 13.1971 3.42426 13.1477 3.57316 13.1278C3.72205 13.108 3.8734 13.1182 4.01829 13.1578L6.63298 13.8L9.75017 12L6.63298 10.2L4.01829 10.8422C3.93059 10.864 3.84055 10.875 3.75017 10.875C3.47554 10.8744 3.21063 10.7733 3.00536 10.5909C2.80008 10.4085 2.66863 10.1572 2.63577 9.88458C2.60292 9.61193 2.67093 9.33667 2.82698 9.1107C2.98304 8.88472 3.21636 8.72363 3.48298 8.65779L5.42079 8.18154L4.91454 6.29154C4.83721 6.00337 4.87753 5.69628 5.02662 5.43783C5.17571 5.17938 5.42137 4.99075 5.70954 4.91342C5.99772 4.83609 6.30481 4.87641 6.56325 5.0255C6.8217 5.17459 7.01034 5.42024 7.08767 5.70842L7.7711 8.25842L10.8752 10.0509V6.46873L8.95517 4.54498C8.85052 4.44033 8.76751 4.3161 8.71087 4.17937C8.65424 4.04264 8.62509 3.8961 8.62509 3.74811C8.62509 3.44922 8.74382 3.16258 8.95517 2.95123C9.16651 2.73989 9.45316 2.62115 9.75204 2.62115C9.90003 2.62115 10.0466 2.6503 10.1833 2.70694C10.32 2.76357 10.4443 2.84658 10.5489 2.95123L12.0002 4.40623L13.4542 2.95123C13.5589 2.84658 13.6831 2.76357 13.8198 2.70694C13.9566 2.6503 14.1031 2.62115 14.2511 2.62115C14.3991 2.62115 14.5456 2.6503 14.6824 2.70694C14.8191 2.76357 14.9433 2.84658 15.048 2.95123C15.1526 3.05588 15.2356 3.18011 15.2923 3.31684C15.3489 3.45357 15.3781 3.60011 15.3781 3.74811C15.3781 3.8961 15.3489 4.04264 15.2923 4.17937C15.2356 4.3161 15.1526 4.44033 15.048 4.54498L13.1252 6.46873V10.0537L16.2302 8.26123L16.9136 5.71123C16.9909 5.42306 17.1796 5.1774 17.438 5.02831C17.6965 4.87922 18.0036 4.8389 18.2917 4.91623C18.5799 4.99356 18.8256 5.18219 18.9746 5.44064C19.1237 5.69909 19.1641 6.00618 19.0867 6.29436L18.5805 8.18436L20.5183 8.66061C20.7825 8.72865 21.0129 8.89037 21.1668 9.11566C21.3206 9.34095 21.3873 9.61446 21.3545 9.88528C21.3217 10.1561 21.1917 10.4058 20.9885 10.5879C20.7853 10.7699 20.523 10.872 20.2502 10.875C20.1595 10.8751 20.0691 10.8641 19.9811 10.8422L17.3664 10.2L14.2502 12L17.3674 13.8L19.982 13.1578C20.2717 13.0868 20.5777 13.1337 20.8328 13.2882C21.0879 13.4428 21.2712 13.6922 21.3424 13.9819Z" fill="#FF6E76"/>
</svg>
