<svg id="Layer_1" data-name="Layer 1" xmlns="http://www.w3.org/2000/svg" viewBox="0 0 510.84 362.12"><defs><style>.cls-1{fill:#f26c77;}</style></defs><path class="cls-1" d="M510.84,308.38c-2.16,4.39-3.38,9.23-6.66,13.09-6.48,7.64-14.54,11.81-24.68,11.89-4.1,0-9.52-1.82-11.92.79-2,2.19-.68,7.54-.71,11.49a18.56,18.56,0,0,1-.91,5.87c-2.19,6.52-8.76,11.12-15.21,10.57a15,15,0,0,1-13.87-13.37,43.4,43.4,0,0,1-.16-9.46c.52-4.63-.72-6.26-5.77-6.07-11.63.44-23.28,0-34.91.23-3.41.07-4-1.06-4-4.17Q392.17,166.63,392,4c0-3.37,1-4,4.15-4,27.76.12,55.53,0,83.3.08,15.2,0,27.16,9.76,30.64,24.76a4.41,4.41,0,0,0,.72,1.17ZM474,222.61a22.53,22.53,0,1,0-22.41,22.52A22.67,22.67,0,0,0,474,222.61ZM429,155.53a22.53,22.53,0,1,0,22.54-22.41A22.73,22.73,0,0,0,429,155.53Zm22.52-52.61c5.14,0,10.29.1,15.44,0a14.63,14.63,0,0,0,14.47-13.63c.68-7.59-4.43-14.74-12.24-15.51a180.82,180.82,0,0,0-35.28,0c-7.82.76-12.94,7.89-12.29,15.49A14.69,14.69,0,0,0,436,102.9C441.17,103,446.32,102.92,451.47,102.92Z"/><path class="cls-1" d="M193.72.08Q275.53.08,357.34,0c3.68,0,5,.63,5,4.73q-.19,161.88,0,323.75c0,4.43-1.4,4.93-5.27,4.93q-138.67-.17-277.36-.21c-4.74,0-6,1.4-5.53,5.78a47.08,47.08,0,0,1-.08,9A15,15,0,0,1,59.37,362.1c-7.68.14-14.55-6.2-15.32-14.19-.1-1,0-2-.06-3-.25-3.76,1.67-8.89-.8-10.9s-7.27-.66-11.07-.69C13.5,333.23,0,319.89,0,301.39Q0,166.71,0,32C0,13.48,13.48.09,32.09.09Q112.91,0,193.72.08Zm-12.12,52q-48.37,0-96.76,0C56.37,52.11,37.06,71.42,37,100Q37,166.81,37,233.64c0,28.2,19.39,47.63,47.53,47.65q96.52.09,193,0c28.15,0,47.51-19.44,47.55-47.64q.07-67.08,0-134.17a51.25,51.25,0,0,0-1.47-12.83c-5.39-21-22.73-34.46-44.83-34.53C246.45,52,214,52.09,181.6,52.09Z"/></svg>