<svg id="Layer_1" data-name="Layer 1" xmlns="http://www.w3.org/2000/svg" viewBox="0 0 487.38 585.01"><defs><style>.cls-1{fill:#ff6e76;}</style></defs><path class="cls-1" d="M239.8,228.73c7.64,24.47,6.67,46.44-8.46,66.61-6.52,8.68-14.3,16.24-21.53,24.29-19.26,21.47-21.05,34.65-8.07,60.32,8.32,16.47,19.71,30.88,30.52,45.69,4.68,6.4,9.31,12.81,11,20.81,1.14,5.44.44,10-4,14.15-8.25,7.59-16,15.76-24.05,23.53a38.92,38.92,0,0,1-22.63,10.66c-9,1.13-16.69-1.58-21.88-9-5.41-7.71-6.78-16.46-2.46-25.2a151,151,0,0,1,9.3-15.32c5.36-8.24,5.94-15.88,0-24.55a313.39,313.39,0,0,1-29.3-51.81c-4.88-11.12-8.17-22.44-5.52-34.82a52.17,52.17,0,0,1,13.14-24.72c4.48-4.87,4.8-10.1.89-13.7s-9.33-3-13.74,1.81c-17.51,19-23.19,41-15.54,65.89,6.53,21.22,17.65,40.29,30,58.5,5.58,8.27,6.46,14.57.81,23-6,8.95-10.12,19.1-17.27,27.34-5.88,6.78-12.76,11.78-22.27,11.77-14.08,0-22.36-11.75-17.42-24.91,2.75-7.33,7.34-13.54,12.62-19.25,6.28-6.79,6.36-9.47.65-16.41a144.48,144.48,0,0,1-31.76-71.58c-2.22-14.84,1.84-28.75,8.09-42.05,6.69-14.24,15.62-27,25.68-39.1,1.31-1.57,2.06-2.94,5-1.66,25,10.79,49.67,9.25,73.74-2.84C212.57,257.55,227.13,245.33,239.8,228.73Z"/><path class="cls-1" d="M231.46,144.11c-6.76-.36-13.51-.9-20.27-1-8.75-.18-12.78,6-9.08,13.93,8.12,17.48,16.44,34.86,24.7,52.27,1,2.07,2.21,3.84.48,6.29-16,22.7-36.75,38.26-64.86,42.55-6,.92-12,.27-17.91-.64-11.79-1.82-20.32-6.4-25.13-19.23-9.26-24.69-20.74-48.54-31.46-72.66-1.46-3.29-1.65-4.35,2.42-5.84,28.6-10.47,45.3-31,50-61.1.43-2.78,1.26-3.84,3.94-4.57,12.25-3.35,24.16-.7,36.11,1.59,27.87,5.33,55.71,10.77,83.6,16,9.49,1.77,16.64,6.32,21.82,14.61,13.9,22.26,28.11,44.33,42.17,66.49,3.62,5.7,3.36,9.87-.64,12.81-3.85,2.83-8.27,1.65-12.31-3.45-9.36-11.81-19-23.4-27.91-35.57-10.3-14.13-23.52-21.9-41.17-21.88-4.83,0-9.66-.45-14.48-.69Z"/><path class="cls-1" d="M0,72.89c0-22.71,14.2-41.53,37.7-50.51,19.77-7.54,38.52-6.64,55.66,7.07,3.13,2.51,4,4.05.31,7.28-25.9,22.59-55.59,38.72-87,52C3.06,90.24,2.3,88.79,1.72,86,.78,81.42-.23,76.89,0,72.89Z"/><path class="cls-1" d="M258.29,466.19c3.28-8.64,3.92-16.37,2-24.26-.66-2.66,1.8-3.66,3.21-5.05q49.14-48.42,98.38-96.76c9-8.81,17.89-17.64,26.91-26.38,4.84-4.7,9.95-5,13.7-1.1s3.44,9-1.38,13.74q-69.84,68.73-139.76,137.38C260.68,464.38,259.93,464.88,258.29,466.19Z"/><path class="cls-1" d="M218.76,504c-.82,1.92-.9,2.56-1.26,2.9-19.95,18.83-38,39.74-59.68,56.65C140.34,577.13,120.61,585.37,98,585a72.31,72.31,0,0,1-36.29-10.37c-5.45-3.24-7.11-7.9-4.58-12.55s7.71-6.07,13-3c22.51,13.05,44.37,9.75,65.94-2.3,14.38-8,25.61-19.81,37.15-31.22,1.24-1.22,2.56-2.37,3.72-3.66,5-5.49,10-9.65,18.51-9.49C203.2,512.52,210.63,508.8,218.76,504Z"/><path class="cls-1" d="M381.2,118.81c-3.18-5.71-7.94-8.84-14.73-11.34l89.59-89.54a43.31,43.31,0,0,1-5.19-.33c-4.78-.9-7.63-3.76-7.56-8.73S446.21.55,451,.34c9.45-.42,19-.47,28.4,0,6.87.32,10.18,8.15,6.29,13.85a12.55,12.55,0,0,1-1.53,1.74C450,50.05,415.85,84.19,381.2,118.81Z"/><path class="cls-1" d="M31.55,131.75c16.09-7,31.94-14.29,46.84-23.49a405.74,405.74,0,0,0,42.69-30.67c7.18,20.29-4,47-24.61,59.71C75.63,150.09,46.49,147.67,31.55,131.75Z"/><path class="cls-1" d="M235.9,400.58c-3-4.27-5.69-8.49-8.76-12.41-2.41-3.07.39-4.1,1.83-5.52q31.14-30.73,62.39-61.39c9.37-9.21,18.71-18.45,28.14-27.6,4.51-4.38,9.52-4.67,13.29-1s3.76,8.84-.69,13.23C300.2,337.35,268.24,368.76,235.9,400.58Z"/><path class="cls-1" d="M134.84,499.27c-17.8,19.59-36.76,37.56-63.5,44.28-19,4.77-37.11,2.87-54.19-7.07-5.64-3.28-7.39-8.2-4.6-12.93,2.65-4.47,7.6-5.6,13.08-2.41,18.69,10.86,37.12,9.56,55.53-.65a145.81,145.81,0,0,0,23.64-16.63c2.32-2,4.47-3.07,7.76-2.51,7.41,1.26,14.59-.31,21.58-2.83A9.87,9.87,0,0,0,134.84,499.27Z"/><path class="cls-1" d="M120.8,53c-.08,1.69-1.44,2.32-2.4,3.18-30.56,27.5-64.76,49-103.61,62.85-1.95.69-4.35,3.07-6.28.8a18.15,18.15,0,0,1-4.24-10c-.22-2.4,2.71-2.29,4.35-2.94a381.78,381.78,0,0,0,68.24-35c11.2-7.28,21.25-16,31.33-24.72,1.44-1.25,2.76-4.16,5.09-2.72C116.55,46.52,118.79,49.81,120.8,53Z"/><path class="cls-1" d="M363.23,116.37a11.71,11.71,0,0,1,9.7,6.12c1.92,3.51,2,7.31-.51,10.37A488.2,488.2,0,0,1,335,174c-1.42,1.39-2.36,1.63-3.47-.37-1.4-2.52-3.06-4.9-4.62-7.34-7.6-11.93-7.53-11.86,3-21.66,8.62-8,17.11-16.18,25.56-24.37A12.31,12.31,0,0,1,363.23,116.37Z"/><path class="cls-1" d="M287.23,216c-7.67-.1-14.06-4.34-16.13-9.93s-.48-10.29,5-15.28c7.64-7,7.64-7,14.12,1.23,3.1,3.93,5.92,8.11,9.36,11.71,3,3.19,2,5.05-.92,7.28C294.9,213.93,290.92,216,287.23,216Z"/></svg>