<svg width="24" height="24" viewBox="0 0 24 24" fill="none" xmlns="http://www.w3.org/2000/svg">
<path d="M13.5001 19.125C13.5001 19.4216 13.4121 19.7116 13.2473 19.9583C13.0825 20.205 12.8482 20.3972 12.5741 20.5108C12.3 20.6243 11.9984 20.654 11.7074 20.5961C11.4165 20.5383 11.1492 20.3954 10.9394 20.1856C10.7296 19.9758 10.5868 19.7086 10.5289 19.4176C10.471 19.1266 10.5007 18.825 10.6143 18.5509C10.7278 18.2768 10.92 18.0426 11.1667 17.8777C11.4134 17.7129 11.7034 17.625 12.0001 17.625C12.3979 17.625 12.7794 17.783 13.0607 18.0643C13.342 18.3456 13.5001 18.7271 13.5001 19.125ZM22.4635 7.86652C19.5133 5.44689 15.8156 4.12451 12.0001 4.12451C8.18451 4.12451 4.48687 5.44689 1.53664 7.86652C1.42245 7.96027 1.32784 8.07559 1.25822 8.2059C1.1886 8.33622 1.14533 8.47897 1.13088 8.626C1.11643 8.77304 1.13108 8.92148 1.174 9.06285C1.21692 9.20423 1.28726 9.33576 1.38101 9.44995C1.47476 9.56414 1.59009 9.65875 1.7204 9.72836C1.85071 9.79798 1.99346 9.84126 2.1405 9.85571C2.28753 9.87016 2.43598 9.85551 2.57735 9.81259C2.71872 9.76967 2.85026 9.69933 2.96445 9.60558C5.51223 7.5164 8.70525 6.37465 12.0001 6.37465C15.2949 6.37465 18.4879 7.5164 21.0357 9.60558C21.1499 9.69933 21.2814 9.76967 21.4228 9.81259C21.5642 9.85551 21.7126 9.87016 21.8596 9.85571C22.0067 9.84126 22.1494 9.79798 22.2797 9.72836C22.4101 9.65875 22.5254 9.56414 22.6191 9.44995C22.7129 9.33576 22.7832 9.20423 22.8261 9.06285C22.8691 8.92148 22.8837 8.77304 22.8693 8.626C22.8548 8.47897 22.8115 8.33622 22.7419 8.2059C22.6723 8.07559 22.5777 7.96027 22.4635 7.86652ZM19.4485 11.2162C17.3286 9.53791 14.7039 8.62475 12.0001 8.62475C9.29621 8.62475 6.67159 9.53791 4.55164 11.2162C4.32363 11.4034 4.17824 11.6726 4.1468 11.9659C4.11536 12.2592 4.20038 12.5531 4.38354 12.7843C4.56671 13.0156 4.83336 13.1656 5.12607 13.2021C5.41879 13.2387 5.71414 13.1588 5.94851 12.9796C7.67092 11.6162 9.80331 10.8743 12.0001 10.8743C14.1968 10.8743 16.3292 11.6162 18.0516 12.9796C18.286 13.1588 18.5814 13.2387 18.8741 13.2021C19.1668 13.1656 19.4334 13.0156 19.6166 12.7843C19.7998 12.5531 19.8848 12.2592 19.8533 11.9659C19.8219 11.6726 19.6765 11.4034 19.4485 11.2162ZM16.4129 14.5593C15.1304 13.627 13.5856 13.1248 12.0001 13.1248C10.4145 13.1248 8.86973 13.627 7.58726 14.5593C7.34608 14.7351 7.18461 14.9995 7.13837 15.2944C7.09213 15.5892 7.16491 15.8903 7.3407 16.1315C7.51649 16.3727 7.78089 16.5342 8.07573 16.5804C8.37057 16.6266 8.6717 16.5539 8.91289 16.3781C9.81008 15.7258 10.8908 15.3745 12.0001 15.3745C13.1093 15.3745 14.1901 15.7258 15.0873 16.3781C15.2067 16.4651 15.3421 16.5278 15.4857 16.5625C15.6294 16.5972 15.7784 16.6033 15.9244 16.5804C16.0704 16.5575 16.2105 16.5061 16.3366 16.4291C16.4627 16.352 16.5724 16.2509 16.6594 16.1315C16.7465 16.0121 16.8092 15.8767 16.8439 15.7331C16.8786 15.5894 16.8847 15.4403 16.8618 15.2944C16.8389 15.1484 16.7875 15.0083 16.7104 14.8822C16.6334 14.7561 16.5323 14.6464 16.4129 14.5593Z" fill="#FF6E76"/>
</svg>
