<svg width="44" height="44" viewBox="0 0 44 44" fill="none" xmlns="http://www.w3.org/2000/svg">
<path d="M22 6.18755C18.6007 6.18755 15.2777 7.19558 12.4512 9.08416C9.62471 10.9727 7.42175 13.6571 6.12087 16.7977C4.81999 19.9383 4.47962 23.3941 5.1428 26.7282C5.80598 30.0622 7.44293 33.1247 9.84665 35.5284C12.2504 37.9322 15.3129 39.5691 18.6469 40.2323C21.981 40.8955 25.4368 40.5551 28.5774 39.2542C31.718 37.9533 34.4023 35.7504 36.2909 32.9239C38.1795 30.0974 39.1875 26.7744 39.1875 23.375C39.1825 18.8182 37.3701 14.4494 34.1479 11.2272C30.9257 8.00498 26.5569 6.19255 22 6.18755ZM22 36.4375C19.4165 36.4375 16.891 35.6714 14.7429 34.2361C12.5948 32.8008 10.9205 30.7607 9.93187 28.3738C8.9432 25.987 8.68452 23.3606 9.18854 20.8267C9.69256 18.2928 10.9366 15.9653 12.7635 14.1385C14.5903 12.3116 16.9178 11.0676 19.4517 10.5635C21.9856 10.0595 24.612 10.3182 26.9988 11.3069C29.3857 12.2955 31.4258 13.9698 32.8611 16.1179C34.2964 18.266 35.0625 20.7915 35.0625 23.375C35.0589 26.8383 33.6815 30.1587 31.2326 32.6076C28.7837 35.0565 25.4633 36.4339 22 36.4375ZM5.58427 12.4593C5.39241 12.6511 5.16465 12.8033 4.91398 12.9071C4.66331 13.011 4.39465 13.0644 4.12333 13.0644C3.85201 13.0644 3.58334 13.011 3.33267 12.9071C3.08201 12.8033 2.85424 12.6511 2.66239 12.4593C2.47054 12.2674 2.31835 12.0396 2.21452 11.789C2.11069 11.5383 2.05725 11.2696 2.05725 10.9983C2.05725 10.727 2.11069 10.4583 2.21452 10.2077C2.31835 9.95701 2.47054 9.72924 2.66239 9.53739L8.16239 4.03739C8.54986 3.64993 9.07537 3.43225 9.62333 3.43225C10.1713 3.43225 10.6968 3.64993 11.0843 4.03739C11.4717 4.42486 11.6894 4.95037 11.6894 5.49833C11.6894 6.04629 11.4717 6.5718 11.0843 6.95927L5.58427 12.4593ZM41.3343 12.4593C41.1427 12.6515 40.915 12.8041 40.6643 12.9082C40.4136 13.0123 40.1448 13.0659 39.8733 13.0659C39.6019 13.0659 39.3331 13.0123 39.0824 12.9082C38.8317 12.8041 38.604 12.6515 38.4124 12.4593L32.9124 6.95927C32.7205 6.76741 32.5684 6.53965 32.4645 6.28898C32.3607 6.03831 32.3073 5.76965 32.3073 5.49833C32.3073 5.22701 32.3607 4.95834 32.4645 4.70767C32.5684 4.45701 32.7205 4.22924 32.9124 4.03739C33.1042 3.84554 33.332 3.69335 33.5827 3.58952C33.8333 3.48569 34.102 3.43225 34.3733 3.43225C34.6447 3.43225 34.9133 3.48569 35.164 3.58952C35.4146 3.69335 35.6424 3.84554 35.8343 4.03739L41.3343 9.53739C41.5265 9.729 41.6791 9.95669 41.7832 10.2074C41.8873 10.4581 41.9409 10.7269 41.9409 10.9983C41.9409 11.2698 41.8873 11.5386 41.7832 11.7893C41.6791 12.04 41.5265 12.2677 41.3343 12.4593ZM30.25 21.3125C30.7971 21.3125 31.3217 21.5298 31.7085 21.9166C32.0952 22.3034 32.3125 22.828 32.3125 23.375C32.3125 23.9221 32.0952 24.4467 31.7085 24.8335C31.3217 25.2202 30.7971 25.4375 30.25 25.4375H22C21.453 25.4375 20.9284 25.2202 20.5416 24.8335C20.1548 24.4467 19.9375 23.9221 19.9375 23.375V15.125C19.9375 14.578 20.1548 14.0534 20.5416 13.6666C20.9284 13.2798 21.453 13.0625 22 13.0625C22.5471 13.0625 23.0717 13.2798 23.4585 13.6666C23.8452 14.0534 24.0625 14.578 24.0625 15.125V21.3125H30.25Z" fill="white"/>
</svg>
