<svg width="8" height="13" viewBox="0 0 8 13" fill="none" xmlns="http://www.w3.org/2000/svg">
<path d="M7.06787 7.06787L1.44287 12.6929C1.28436 12.8514 1.06938 12.9404 0.845213 12.9404C0.621049 12.9404 0.406065 12.8514 0.247557 12.6929C0.0890489 12.5344 1.67016e-09 12.3194 0 12.0952C-1.67016e-09 11.871 0.0890489 11.6561 0.247557 11.4976L5.2756 6.47092L0.248964 1.44287C0.170478 1.36438 0.10822 1.27121 0.0657442 1.16866C0.0232682 1.06612 0.00140601 0.956209 0.00140601 0.845214C0.00140601 0.734219 0.0232682 0.62431 0.0657442 0.521764C0.10822 0.419218 0.170478 0.326043 0.248964 0.247557C0.327449 0.169072 0.420625 0.106814 0.523171 0.0643381C0.625717 0.0218622 0.735625 -8.26977e-10 0.84662 0C0.957615 8.26978e-10 1.06752 0.0218622 1.17007 0.0643381C1.27262 0.106814 1.36579 0.169072 1.44428 0.247557L7.06928 5.87256C7.14784 5.95104 7.21015 6.04425 7.25261 6.14686C7.29508 6.24947 7.31687 6.35946 7.31674 6.47051C7.31661 6.58156 7.29456 6.69149 7.25185 6.794C7.20914 6.8965 7.14662 6.98958 7.06787 7.06787Z" fill="white"/>
</svg>
