<svg width="24" height="20" viewBox="0 0 24 20" fill="none" xmlns="http://www.w3.org/2000/svg">
<path d="M22.125 6.75265H19.4344C19.3569 6.53351 19.2135 6.34376 19.0238 6.20946C18.8341 6.07516 18.6074 6.00291 18.375 6.00265H12.375C12.1426 6.00291 11.9159 6.07516 11.7262 6.20946C11.5365 6.34376 11.3931 6.53351 11.3156 6.75265H6V3.00265C6 2.80373 6.07902 2.61297 6.21967 2.47232C6.36032 2.33166 6.55109 2.25265 6.75 2.25265C6.92701 2.25252 7.09902 2.31133 7.2389 2.41981C7.37878 2.52828 7.47856 2.68024 7.5225 2.85171C7.58192 3.14411 7.75507 3.40093 8.00385 3.56567C8.25263 3.73041 8.55666 3.78957 8.84906 3.73015C9.14146 3.67072 9.39828 3.49757 9.56302 3.2488C9.72776 3.00002 9.78693 2.69598 9.7275 2.40358C9.57514 1.67344 9.15802 1.02549 8.55648 0.584504C7.95494 0.143519 7.21151 -0.0593153 6.46935 0.0150628C5.7272 0.089441 5.03881 0.435771 4.53675 0.98736C4.03468 1.53895 3.75444 2.25679 3.75 3.00265V6.75265H1.125C0.826631 6.75265 0.540483 6.87117 0.329505 7.08215C0.118526 7.29313 0 7.57928 0 7.87765V11.6276C0.00194605 13.0539 0.544947 14.4262 1.51938 15.4676C2.4938 16.509 3.82707 17.142 5.25 17.2386V18.3776C5.25 18.676 5.36853 18.9622 5.5795 19.1731C5.79048 19.3841 6.07663 19.5026 6.375 19.5026C6.67337 19.5026 6.95952 19.3841 7.1705 19.1731C7.38147 18.9622 7.5 18.676 7.5 18.3776V17.2526H15.75V18.3776C15.75 18.676 15.8685 18.9622 16.0795 19.1731C16.2905 19.3841 16.5766 19.5026 16.875 19.5026C17.1734 19.5026 17.4595 19.3841 17.6705 19.1731C17.8815 18.9622 18 18.676 18 18.3776V17.2386C19.4229 17.142 20.7562 16.509 21.7306 15.4676C22.7051 14.4262 23.2481 13.0539 23.25 11.6276V7.87765C23.25 7.57928 23.1315 7.29313 22.9205 7.08215C22.7095 6.87117 22.4234 6.75265 22.125 6.75265ZM13.5 8.25265H17.25V10.5026H13.5V8.25265ZM21 11.6276C21 12.5228 20.6444 13.3812 20.0115 14.0141C19.3785 14.6471 18.5201 15.0026 17.625 15.0026H5.625C4.72989 15.0026 3.87145 14.6471 3.23851 14.0141C2.60558 13.3812 2.25 12.5228 2.25 11.6276V9.00265H11.25V11.6276C11.25 11.926 11.3685 12.2122 11.5795 12.4231C11.7905 12.6341 12.0766 12.7526 12.375 12.7526H18.375C18.6734 12.7526 18.9595 12.6341 19.1705 12.4231C19.3815 12.2122 19.5 11.926 19.5 11.6276V9.00265H21V11.6276Z" fill="white"/>
</svg>
