<svg width="15" height="15" viewBox="0 0 15 15" fill="none" xmlns="http://www.w3.org/2000/svg">
<path d="M6.60319 10.2757C6.69059 10.3628 6.75994 10.4663 6.80725 10.5803C6.85457 10.6942 6.87893 10.8164 6.87893 10.9398C6.87893 11.0632 6.85457 11.1854 6.80725 11.2993C6.75994 11.4133 6.69059 11.5168 6.60319 11.6039L4.10319 14.1039C4.01609 14.1913 3.9126 14.2606 3.79864 14.3079C3.68469 14.3552 3.56251 14.3796 3.43913 14.3796C3.31574 14.3796 3.19356 14.3552 3.07961 14.3079C2.96565 14.2606 2.86216 14.1913 2.77506 14.1039L0.275064 11.6039C0.187858 11.5167 0.118682 11.4131 0.0714868 11.2992C0.0242913 11.1853 1.83773e-09 11.0631 0 10.9398C-1.83773e-09 10.8165 0.0242913 10.6944 0.0714868 10.5804C0.118682 10.4665 0.187858 10.3629 0.275064 10.2757C0.362269 10.1885 0.465798 10.1194 0.579738 10.0722C0.693678 10.025 0.815799 10.0007 0.939126 10.0007C1.06245 10.0007 1.18457 10.025 1.29851 10.0722C1.41245 10.1194 1.51598 10.1885 1.60319 10.2757L2.50241 11.1734V0.939021C2.50241 0.69038 2.60118 0.451923 2.77699 0.276108C2.95281 0.100292 3.19127 0.00152051 3.43991 0.00152051C3.68855 0.00152051 3.927 0.100292 4.10282 0.276108C4.27864 0.451923 4.37741 0.69038 4.37741 0.939021V11.1734L5.27663 10.2734C5.36385 10.1864 5.46737 10.1174 5.58126 10.0704C5.69515 10.0235 5.81719 9.99939 5.94039 9.99961C6.0636 9.99983 6.18555 10.0243 6.29927 10.0717C6.413 10.1191 6.51627 10.1884 6.60319 10.2757ZM14.1032 2.77574L11.6032 0.275739C11.5161 0.188339 11.4126 0.118992 11.2986 0.0716746C11.1847 0.024357 11.0625 0 10.9391 0C10.8157 0 10.6936 0.024357 10.5796 0.0716746C10.4657 0.118992 10.3622 0.188339 10.2751 0.275739L7.77506 2.77574C7.59894 2.95186 7.5 3.19073 7.5 3.4398C7.5 3.68887 7.59894 3.92774 7.77506 4.10386C7.95118 4.27998 8.19005 4.37893 8.43913 4.37893C8.6882 4.37893 8.92707 4.27998 9.10319 4.10386L10.0024 3.20465V13.439C10.0024 13.6877 10.1012 13.9261 10.277 14.1019C10.4528 14.2777 10.6913 14.3765 10.9399 14.3765C11.1885 14.3765 11.427 14.2777 11.6028 14.1019C11.7786 13.9261 11.8774 13.6877 11.8774 13.439V3.20465L12.7766 4.10465C12.9527 4.28077 13.1916 4.37971 13.4407 4.37971C13.6898 4.37971 13.9286 4.28077 14.1047 4.10465C14.2809 3.92852 14.3798 3.68965 14.3798 3.44058C14.3798 3.19151 14.2809 2.95264 14.1047 2.77652L14.1032 2.77574Z" fill="white"/>
</svg>
