<svg id="Layer_1" data-name="Layer 1" xmlns="http://www.w3.org/2000/svg" viewBox="0 0 627.43 389.28"><defs><style>.cls-1{fill:#f26c77;}</style></defs><path class="cls-1" d="M250,0H454.74c20.91,0,35.88,10.47,43,30.26q20.84,57.86,41.42,115.79c1.32,3.72,3.14,5.76,6.93,7.11q22.75,8.16,45.27,17c23.56,9.25,36,27.79,36,53.07q0,38.87,0,77.72c0,14.76-8.68,23.38-23.46,23.42-6.08,0-13.34,2-17.92-.6-4.84-2.77-2.36-10.92-3.65-16.62-8.85-39.06-39.67-65.91-79.57-69.11-43.69-3.5-85.25,30.62-90.49,74.29-1.45,12-1.45,12-14,12q-92.91,0-185.82.08c-4.59,0-6.68-.37-7.24-6.1-3.95-40.28-29.36-69.3-67.75-78.27-48.24-11.28-97.6,23.26-103.74,72.42-.48,3.89.79,10.06-2.13,11.22-4.68,1.84-10.61,1.43-15.88-.17C6.07,320.64.31,312.46.31,301.65q0-118.59.07-237.2C.4,53.92-1,43.29,1.57,32.85,6.46,13.3,23.16,0,43.22,0Q146.6,0,250,0ZM117.57,151.39c20.25,0,40.51-.16,60.77.12,4.71.07,5.93-1.08,5.89-5.85q-.34-48.28,0-96.57c0-4.62-.94-6-5.79-6-40.29.22-80.58.1-120.87.14-10,0-14,4-14,13.82q-.07,40.17,0,80.36c0,9.89,4,13.89,13.9,13.92C77.5,151.43,97.53,151.39,117.57,151.39Zm155-108.13c-20.48,0-41,.15-61.44-.11-4.49-.06-5.5,1.25-5.47,5.57q.27,48.61,0,97.24c0,4.37,1.07,5.56,5.5,5.54,40.29-.18,80.58-.09,120.87-.12,10.34,0,14.27-3.92,14.28-14.23q.06-39.84,0-79.68c0-10.33-3.91-14.18-14.31-14.2Q302.27,43.23,272.55,43.26ZM517.41,151.39a27.67,27.67,0,0,0-.71-3c-12-33.74-24.17-67.45-36.05-101.24-1.16-3.3-2.74-3.93-5.8-3.92-24.1.09-48.2,0-72.29.08-8.67,0-12.95,4.22-13,12.78q-.13,41.22,0,82.44c0,8.59,4.28,12.84,12.91,12.85C440.55,151.43,478.6,151.39,517.41,151.39Zm-106,43.26c-7,0-13.92-.15-20.87,0S379,199.26,378.8,205.18c-.19,6.11,4.74,10.95,11.9,11q20.52.27,41.06,0c6.82-.09,11.59-4.61,11.77-10.48.19-6.11-4.74-10.85-11.9-11C424.91,194.5,418.17,194.65,411.44,194.65Z"/><path class="cls-1" d="M54.36,324.33a64.55,64.55,0,0,1,65.08-64.81c36,.07,64.68,29,64.67,65.3a64.88,64.88,0,0,1-129.75-.49Zm86.46.28c.12-11.46-9.62-21.46-21.21-21.77s-22,10-22,21.67c.07,11.49,10,21.4,21.52,21.48C130.52,346.07,140.7,336,140.82,324.61Z"/><path class="cls-1" d="M497.69,389.28A64.88,64.88,0,1,1,498,259.52c36,.09,64.62,29,64.59,65.37A64.61,64.61,0,0,1,497.69,389.28Zm.22-86.45c-11.36-.21-21.51,9.63-21.83,21.14s9.92,22,21.66,22c11.38,0,21.49-10.12,21.51-21.51S509.48,303.05,497.91,302.83Z"/></svg>