<svg id="Layer_1" data-name="Layer 1" xmlns="http://www.w3.org/2000/svg" viewBox="0 0 513.68 513.53"><defs><style>.cls-1{fill:#ff6e76;}</style></defs><path class="cls-1" d="M101.3,513.53c0-8.69-.3-17.38-.07-26.06.09-3.53-.92-4.69-4.45-5.46C57.5,473.5,29,444.06,21.59,404.68c-2.47-13.25-1.28-26.67-1.5-40-.08-5,.08-10-.06-15-.06-2.15.58-3.1,2.8-2.83a25.18,25.18,0,0,0,3,0q230.93,0,461.86-.12c4.87,0,6.09,1.14,5.88,5.94-.7,16,.71,32.08-1.05,48.09-4.22,38.21-35.55,73-73.34,80.66-5.45,1.11-7.3,3-6.93,8.61.52,7.81,0,15.69,0,23.54H382.15c.05-8-.18-16,.27-24,.26-4.47-1.06-5.4-5.42-5.4q-120.22.22-240.46.11a20.84,20.84,0,0,1-2.5,0c-2.17-.27-2.89.57-2.85,2.79.16,8.84.15,17.69.2,26.53Z"/><path class="cls-1" d="M0,256.77c5.5-.1,11-.37,16.5-.23,2.87.07,4-.83,3.59-3.67a23.08,23.08,0,0,1,0-3q0-82.74,0-165.47c0-36.91,21.25-67.21,55.39-79.57C124.31-12.86,178.1,20,184.69,71.58c.43,3.33,1.5,5,5.14,6,28.88,7.79,50.21,35.29,50.92,65.24.15,6.18-.11,12.37.16,18.54.14,3.19-1,3.87-4,3.86q-66.43-.13-132.88-.08c-1.72,0-3.83.62-3.73-2.46.33-10.82-.88-21.72,1.76-32.43,6.57-26.68,23.17-44.07,49.1-52.6,3-1,3.92-1.76,3.29-5-5-25.75-29.51-44.45-55.84-42.34C72.71,32.32,50.55,54.66,50.36,80.43c-.42,57.49-.15,115-.25,172.48,0,2.88.85,3.94,3.66,3.58a27.39,27.39,0,0,1,3.51,0q225.13,0,450.28-.14c5.15,0,6.21,1.32,6.11,6.23-.34,16.37-.29,32.76,0,49.14.07,4.24-1.11,5.13-5.23,5.12q-186.78-.18-373.56-.09-64.68,0-129.37,0c-1.83,0-3.66.14-5.49.21Z"/></svg>