<svg id="Layer_1" data-name="Layer 1" xmlns="http://www.w3.org/2000/svg" viewBox="0 0 527.89 528"><defs><style>.cls-1{fill:#ff6e76;}</style></defs><path class="cls-1" d="M263.64,387.45q-103.71,0-207.41,0a34.12,34.12,0,0,1-7.64-.54,17.57,17.57,0,0,1-13.51-16.65c-.17-8.22,5-15.51,13.27-17.28,4-.85,4.59-2.51,4.7-6,.86-26.05,3.18-51.89,10.53-77.1,14.21-48.67,46.16-79.89,93.65-96,26.92-9.14,54.74-13.23,83.05-14.21,4.93-.18,7-1.53,6.14-6.53a10.67,10.67,0,0,1,0-3.29c.75-5.46,0-8.91-6.75-10.57-7.83-1.91-12.09-11.08-10.68-18.92a17.54,17.54,0,0,1,16.93-14.56c11.92-.19,23.84-.17,35.76,0A17.69,17.69,0,0,1,299.11,121a17.28,17.28,0,0,1-13.48,19.27c-3.56.77-4.28,2.12-4.06,5.27.3,4.35-1.3,10,.86,12.76,2.32,3,8.25,1.08,12.6,1.4,30.26,2.24,60,6.93,88.2,18.78,44.6,18.75,71.65,52.32,83.27,98.91,5.67,22.72,7.65,45.86,8.44,69.15.12,3.57.39,5.62,4.85,6.54,8.77,1.81,14.15,10.38,13,19-1.17,9-8.67,15.36-18.47,15.37q-66.3.06-132.59,0Zm36.67-157.3c-9.84-.34-18,6.77-18.67,16.29a17.76,17.76,0,0,0,16.05,18.86c6,.68,12,1.23,18,2.18,23.53,3.73,44.1,11,50.14,38.23,1.95,8.8,12.23,13.06,20.8,10.59,9-2.58,14.75-11.2,12.58-20.32-4.8-20.09-14.6-37-32.76-48.07C346.13,235.54,323.34,232.37,300.31,230.15Z"/><path class="cls-1" d="M0,528c5.58-16.83,11.05-33.29,16.46-49.77.66-2,1.78-2.61,3.9-2.9,18.47-2.56,29.5-13.52,32.1-32.12.42-3,1.63-3,3.8-3,11.56.06,23.11,0,34.67,0,50.07,0,100.14-.06,150.21.1,4.25,0,5.47-1,5.36-5.32-.29-12.39-.08-12.39,12.27-12.39,6.6,0,13.21.1,19.81-.05,2.42-.06,3.2.67,3.08,3.09-.19,3.66.14,7.35-.11,11-.2,2.92.8,3.7,3.66,3.63,8.62-.18,17.24-.06,25.86-.06q79.5,0,159-.06c3.47,0,5.13.16,5.69,4.63,2.08,16.61,14.4,28.3,31.31,30.43,2.55.32,3.8,1,4.61,3.48,5,15.28,10.15,30.5,15.23,45.75.35,1,.58,2.09,1,3.49Z"/><path class="cls-1" d="M246.39,34.82c0-5.67-.09-11.35,0-17C246.61,7.6,254.29,0,264.1,0a17.53,17.53,0,0,1,17.46,17.48c.18,11.9.2,23.79,0,35.68a17.57,17.57,0,0,1-35.13-.23C246.27,46.9,246.39,40.86,246.39,34.82Z"/><path class="cls-1" d="M69.54,52.81c5.62.14,9.64,1.74,12.91,4.94,6.15,6,12.35,12,18.24,18.3a17.54,17.54,0,0,1-24.93,24.67c-6.25-5.91-12.37-12-18.25-18.28-5.26-5.62-6.36-12.33-3.15-19.34A16.83,16.83,0,0,1,69.54,52.81Z"/><path class="cls-1" d="M422.46,88.69c.17-5.56,1.77-9.57,5-12.84,5.91-6,11.79-12,17.89-17.86,7.26-6.94,17.81-6.86,24.7-.07a17.36,17.36,0,0,1,.3,24.7c-5.92,6.25-12,12.37-18.29,18.25-5.62,5.25-12.33,6.32-19.34,3.09A16.89,16.89,0,0,1,422.46,88.69Z"/></svg>