<svg id="Layer_1" data-name="Layer 1" xmlns="http://www.w3.org/2000/svg" viewBox="0 0 426.93 512"><defs><style>.cls-1{fill:#ff6e76;}</style></defs><path class="cls-1" d="M102.53,370.86V72.52c0-14.16,4.07-19.29,17.86-21.74q96.21-17.06,192.43-34Q359,8.65,405.09.4c12.6-2.26,21.79,5.15,21.79,18q0,175-.05,350c-.06,43.08-39.12,86.79-81.7,92.19C312.3,464.71,286.9,438.4,290.55,404c4.1-38.59,36.19-75.39,73.58-84.44a59.35,59.35,0,0,1,27.95-.07c.81-4.21,1-190.25.26-196.72q-54.54,9.57-109.06,19.16c-47.36,8.37-94.7,16.89-142.1,25.06-4.09.71-4.58,2.19-4.58,5.72q.14,122.16.06,244.33c0,41.8-32.84,83.31-73.52,93.16C26.2,519.16-3.27,493.56.29,455.62c3.59-38.19,36-75.62,73.23-84.74A61.31,61.31,0,0,1,102.53,370.86Z"/></svg>