<?xml version="1.0" encoding="utf-8"?>
<!-- Generator: Adobe Illustrator 24.1.0, SVG Export Plug-In . SVG Version: 6.00 Build 0)  -->
<svg version="1.1" id="Layer_1" xmlns="http://www.w3.org/2000/svg" xmlns:xlink="http://www.w3.org/1999/xlink" x="0px" y="0px"
	 width="225px" height="58px" viewBox="0 0 225 58" style="enable-background:new 0 0 225 58;" xml:space="preserve">
<style type="text/css">
	.st0{fill-rule:evenodd;clip-rule:evenodd;fill:#FFFFFF;}
	.st1{fill-rule:evenodd;clip-rule:evenodd;}
	.st2{opacity:0.5;fill-rule:evenodd;clip-rule:evenodd;enable-background:new    ;}
	.st3{fill-rule:evenodd;clip-rule:evenodd;fill:#1D1D1B;}
	.st4{opacity:0.5;fill-rule:evenodd;clip-rule:evenodd;fill:#FFFFFF;enable-background:new    ;}
	.st5{fill-rule:evenodd;clip-rule:evenodd;fill:url(#SVGID_1_);}
	.st6{fill-rule:evenodd;clip-rule:evenodd;fill:url(#SVGID_2_);}
</style>
<g>
	<g transform="translate(71 10)">
		<path class="st0" d="M5,9.9C5,5,5,4.1,4.9,3.1c0-1-0.3-1.5-1.3-1.8c-0.3,0-0.9-0.1-1.3-0.1S1.7,1.2,1.7,1s0.2-0.3,0.7-0.3
			c1.7,0,3.7,0.1,4.6,0.1c0.8,0,2.8-0.1,4.1-0.1c0.5,0,0.7,0.1,0.7,0.3s-0.2,0.3-0.6,0.3c-0.4,0-0.5,0-0.9,0.1
			C9.4,1.5,9.1,2,9.1,3.2C9,4.2,9,5.1,9,9.9v5.9c0,1.4,0.1,2.9,0.1,4.5c0,1.8-0.1,3.9-0.8,5.7c-0.7,1.9-2.4,4.2-5.5,6
			c-0.4,0.3-0.9,0.5-1.6,0.8C1,33,0.7,33.1,0.6,33.1S0.3,33,0.3,32.8s0.2-0.3,0.7-0.6C1.5,32,1.9,31.7,2.6,31C5,28.6,5,25.4,5,19.1
			V9.9z"/>
		<path class="st0" d="M25.1,16.5c0.1,0,0.2-0.1,0.1-0.2l-2.7-6.9c0-0.1-0.1-0.3-0.1-0.3c-0.1,0-0.1,0.2-0.2,0.3l-2.7,6.9
			c-0.1,0.1,0,0.2,0.1,0.2H25.1z M19,18c-0.2,0-0.2,0-0.3,0.2l-1.5,3.6c-0.3,0.7-0.4,1.3-0.4,1.7c0,0.5,0.3,0.8,1.1,0.8h0.4
			c0.4,0,0.4,0.1,0.4,0.3c0,0.2-0.2,0.3-0.5,0.3c-0.9,0-2.3-0.1-3.2-0.1c-0.3,0-1.8,0.1-3.3,0.1c-0.4,0-0.5-0.1-0.5-0.3
			c0-0.2,0.1-0.3,0.3-0.3c0.3,0,0.6,0,0.8,0c1.3-0.2,1.8-1,2.4-2.4l7.4-17.1c0.3-0.8,0.5-1.1,0.8-1.1c0.4,0,0.5,0.3,0.8,0.9
			c0.7,1.5,5.4,12.6,7.2,16.7c1.1,2.5,1.9,2.8,2.4,2.9c0.4,0.1,0.7,0.1,1.1,0.1c0.3,0,0.4,0.1,0.4,0.3c0,0.2-0.2,0.3-1.2,0.3
			s-3.1,0-5.4-0.1c-0.5,0-0.8,0-0.8-0.2s0.1-0.3,0.4-0.3c0.2,0,0.4-0.3,0.3-0.6L26,18.2C25.9,18,25.8,18,25.7,18H19z"/>
		<path class="st0" d="M38.1,12.1c0-4.1,0-4.9,0-5.7c-0.1-0.9-0.3-1.2-1.2-1.5c-0.2-0.1-0.7-0.1-1.1-0.1c-0.3,0-0.5-0.1-0.5-0.3
			s0.2-0.3,0.6-0.3c1.5,0,3.3,0.1,4.1,0.1c1.2,0,3.4-0.1,4.7-0.1c3.5,0,4.8,1.1,5.3,1.5c0.6,0.6,1.4,1.8,1.4,3.3
			c0,3.8-3.1,6.6-7.1,6.6c-0.1,0-0.7,0-0.8,0c-0.2,0-0.4-0.1-0.4-0.3s0.3-0.4,0.9-0.4c1.6,0,3.8-1.6,3.8-4.4c0-0.9-0.1-2.7-1.7-4
			c-1-0.9-2.2-1-2.8-1c-0.4,0-1,0-1.2,0.1s-0.2,0.2-0.2,0.5v10.8c0,2.5,0,4.6,0.1,5.8c0.1,0.8,0.3,1.3,1.1,1.4
			c0.4,0.1,1,0.1,1.5,0.1c0.3,0,0.5,0.2,0.5,0.3c0,0.2-0.2,0.3-0.5,0.3c-1.9,0-3.9-0.1-4.6-0.1c-0.6,0-2.4,0.1-3.6,0.1
			c-0.4,0-0.5-0.1-0.5-0.3c0-0.1,0.1-0.3,0.5-0.3s0.7,0,1-0.1c0.6-0.1,0.7-0.6,0.8-1.4c0.1-1.2,0.1-3.3,0.1-5.8L38.1,12.1z"/>
		<path class="st0" d="M63,16.5c0.1,0,0.2-0.1,0.1-0.2l-2.7-6.9c0-0.1-0.1-0.3-0.1-0.3c-0.1,0-0.1,0.2-0.2,0.3l-2.7,6.9
			c-0.1,0.1,0,0.2,0.1,0.2H63z M57,18c-0.2,0-0.2,0-0.3,0.2l-1.5,3.6c-0.3,0.7-0.4,1.3-0.4,1.7c0,0.5,0.3,0.8,1.1,0.8h0.4
			c0.4,0,0.4,0.1,0.4,0.3c0,0.2-0.2,0.3-0.5,0.3c-0.9,0-2.3-0.1-3.2-0.1c-0.3,0-1.8,0.1-3.3,0.1c-0.4,0-0.5-0.1-0.5-0.3
			c0-0.2,0.1-0.3,0.3-0.3c0.3,0,0.6,0,0.8,0c1.3-0.2,1.8-1,2.4-2.4l7.4-17.1c0.3-0.8,0.5-1.1,0.8-1.1c0.4,0,0.5,0.3,0.8,0.9
			c0.7,1.5,5.4,12.6,7.2,16.7c1.1,2.5,1.9,2.8,2.4,2.9c0.4,0.1,0.7,0.1,1.1,0.1c0.3,0,0.4,0.1,0.4,0.3c0,0.2-0.2,0.3-1.2,0.3
			s-3.1,0-5.4-0.1c-0.5,0-0.8,0-0.8-0.2s0.1-0.3,0.4-0.3c0.2,0,0.4-0.3,0.3-0.6l-2.2-5.5c0-0.2-0.1-0.2-0.3-0.2H57z"/>
		<path class="st0" d="M77.9,21.1c0.1,2.1,0.4,2.7,1,2.9c0.5,0.2,1,0.2,1.5,0.2c0.3,0,0.5,0.1,0.5,0.3c0,0.2-0.3,0.3-0.6,0.3
			c-1.8,0-3.2-0.1-3.7-0.1c-0.3,0-1.6,0.1-3.1,0.1c-0.4,0-0.6,0-0.6-0.3c0-0.2,0.2-0.3,0.5-0.3c0.4,0,0.9,0,1.3-0.1
			c0.7-0.2,0.8-0.9,0.9-3.3l0.3-16.1c0-0.5,0.2-0.9,0.5-0.9c0.4,0,0.7,0.4,1.2,0.9c0.4,0.3,4.6,4.7,8.7,8.7c1.9,1.9,5.7,5.7,6.1,6.1
			h0.1L92.1,7.4c0-1.7-0.3-2.1-1-2.4c-0.4-0.2-1.1-0.2-1.5-0.2s-0.5-0.1-0.5-0.3c0-0.2,0.3-0.3,0.7-0.3c1.5,0,3,0.1,3.6,0.1
			c0.3,0,1.4-0.1,2.8-0.1c0.4,0,0.6,0,0.6,0.3c0,0.2-0.2,0.3-0.5,0.3s-0.5,0-0.9,0.1c-0.8,0.2-1,0.7-1,2.2l-0.3,17.1
			c0,0.6-0.2,0.9-0.5,0.9c-0.5,0-0.9-0.3-1.2-0.6c-1.8-1.6-5.3-5-8.3-7.8C81,13.8,78,10.5,77.5,10h-0.1L77.9,21.1z"/>
		<path class="st0" d="M106.5,24.5c-0.5-0.2-0.5-0.3-0.5-0.9c0-1.5,0.1-3.2,0.2-3.6c0-0.4,0.1-0.7,0.4-0.7s0.3,0.3,0.3,0.4
			c0,0.4,0.1,0.9,0.3,1.4c0.6,2,2.7,2.7,4.5,2.7c2.4,0,3.9-1.5,3.9-3.5c0-1.2-0.3-2.4-2.8-3.8l-1.6-1c-3.4-1.9-4.5-3.8-4.5-6.2
			c0-3.3,3.2-5.5,7.2-5.5c1.8,0,3.3,0.3,4,0.4c0.3,0.1,0.4,0.2,0.4,0.4c0,0.4-0.1,1.1-0.1,3.3c0,0.6-0.1,0.9-0.4,0.9
			c-0.2,0-0.3-0.2-0.3-0.5s-0.1-1.1-0.7-1.8c-0.4-0.5-1.3-1.3-3.2-1.3c-2,0-3.9,1.1-3.9,2.9c0,1.2,0.5,2.2,3,3.6l1.2,0.6
			c3.7,2,4.9,4.1,4.9,6.6c0,2-0.8,3.6-2.8,5.1c-1.4,1-3.2,1.1-4.7,1.1C109.5,25.2,107.8,25,106.5,24.5"/>
		<path class="st0" d="M128.5,13.4h0.1c1-1,5.1-5,5.9-6c0.8-0.9,1.4-1.5,1.4-2c0-0.3-0.1-0.5-0.4-0.5c-0.3-0.1-0.4-0.1-0.4-0.3
			c0-0.2,0.2-0.3,0.5-0.3c0.6,0,2.2,0.1,2.9,0.1c0.9,0,2.4-0.1,3.3-0.1c0.3,0,0.5,0.1,0.5,0.3c0,0.2-0.2,0.3-0.4,0.3
			c-0.4,0-1.1,0.1-1.6,0.3c-0.9,0.3-1.8,0.9-3,2c-0.9,0.8-5.1,4.8-6,5.8c1,1.3,6.6,7,7.7,8.1c1.3,1.1,2.4,2.3,3.9,2.9
			c0.8,0.4,1.4,0.4,1.7,0.4c0.2,0,0.4,0.1,0.4,0.3c0,0.2-0.2,0.3-0.7,0.3h-2.5c-0.8,0-1.4,0-2-0.1c-1.5-0.1-2.4-0.7-3.7-1.8
			s-6.7-7.3-7.3-8.1l-0.3-0.4h-0.1v2.5c0,2.5,0,4.6,0.1,5.8c0.1,0.8,0.3,1.3,1,1.4c0.4,0.1,1,0.1,1.4,0.1c0.2,0,0.4,0.2,0.4,0.3
			c0,0.2-0.2,0.3-0.5,0.3c-1.6,0-3.6-0.1-4.3-0.1c-0.6,0-2.4,0.1-3.6,0.1c-0.4,0-0.5-0.1-0.5-0.3c0-0.1,0.1-0.3,0.5-0.3s0.7,0,1-0.1
			c0.6-0.1,0.7-0.6,0.8-1.4c0.1-1.2,0.1-3.3,0.1-5.8v-4.8c0-4.1,0-4.9,0-5.8c-0.1-0.9-0.3-1.2-1.2-1.5c-0.2-0.1-0.7-0.1-1.1-0.1
			c-0.3,0-0.5-0.1-0.5-0.3c0-0.2,0.2-0.3,0.6-0.3c1.5,0,3.3,0.1,4,0.1s2.7-0.1,3.6-0.1c0.4,0,0.6,0.1,0.6,0.3c0,0.2-0.2,0.3-0.4,0.3
			c-0.3,0-0.5,0-0.8,0.1c-0.8,0.1-1,0.5-1.1,1.5c0,0.9,0,1.6,0,5.8L128.5,13.4z"/>
		<path class="st0" d="M146.9,12.1c0-4.1,0-4.9,0-5.7c-0.1-0.9-0.4-1.2-1-1.4c-0.3-0.1-0.7-0.1-1-0.1s-0.5-0.1-0.5-0.3
			c0-0.2,0.2-0.2,0.7-0.2c1.1,0,3,0.1,3.8,0.1c0.7,0,2.5-0.1,3.6-0.1c0.4,0,0.6,0.1,0.6,0.2c0,0.3-0.2,0.3-0.5,0.3s-0.5,0-0.8,0.1
			c-0.8,0.1-1,0.5-1.1,1.5c-0.1,0.9-0.1,1.6-0.1,5.7V17c0,2.6,0,4.8,0.1,5.9c0.1,0.7,0.3,1.1,1.1,1.3c0.4,0.1,1,0.1,1.5,0.1
			c0.3,0,0.5,0.2,0.5,0.3c0,0.2-0.2,0.3-0.5,0.3c-1.9,0-3.8-0.1-4.6-0.1c-0.6,0-2.6,0.1-3.7,0.1c-0.4,0-0.5-0.1-0.5-0.3
			c0-0.1,0.1-0.3,0.5-0.3s0.7,0,1-0.1c0.6-0.1,0.7-0.5,0.8-1.3c0.1-1.1,0.1-3.3,0.1-5.9L146.9,12.1L146.9,12.1z"/>
		<path class="st0" d="M13.8,33.5c0-2.2,0-2.7,0-3.1c0-0.5-0.2-0.7-0.7-0.8c-0.1,0-0.4-0.1-0.6-0.1c-0.2,0-0.3-0.1-0.3-0.2
			s0.1-0.1,0.4-0.1c0.8,0,1.8,0,2.2,0c0.5,0,3.9,0,4.2,0c0.3,0,0.5-0.1,0.6-0.1s0.2-0.1,0.2-0.1c0.1,0,0.1,0.1,0.1,0.1
			c0,0.1-0.1,0.3-0.1,1c0,0.2-0.1,0.8-0.1,1c0,0.1-0.1,0.2-0.2,0.2s-0.1-0.1-0.1-0.2s0-0.4-0.1-0.5c-0.1-0.3-0.2-0.5-1-0.5
			c-0.3,0-2.1-0.1-2.4-0.1c-0.1,0-0.1,0.1-0.1,0.1v3.6c0,0.1,0,0.2,0.1,0.2c0.4,0,2.3,0,2.7,0c0.4,0,0.6-0.1,0.7-0.2
			c0.1-0.1,0.2-0.2,0.2-0.2c0.1,0,0.1,0.1,0.1,0.2c0,0.1,0,0.3-0.1,1.1c0,0.3-0.1,0.9-0.1,1s0,0.3-0.2,0.3c-0.1,0-0.1-0.1-0.1-0.1
			c0-0.2,0-0.3-0.1-0.5c-0.1-0.3-0.3-0.5-0.9-0.6c-0.3,0-2-0.1-2.4-0.1c-0.1,0-0.1,0.1-0.1,0.2v1.2c0,0.5,0,1.8,0,2.2
			c0,1,0.5,1.2,2.1,1.2c0.4,0,1,0,1.5-0.2c0.4-0.2,0.6-0.5,0.7-1.1c0-0.2,0.1-0.2,0.2-0.2s0.1,0.2,0.1,0.3c0,0.3-0.1,1.3-0.2,1.6
			c-0.1,0.4-0.2,0.4-0.8,0.4c-1.2,0-2.1,0-2.8-0.1c-0.8,0-1.3,0-1.8,0c-0.2,0-0.5,0-0.9,0s-0.8,0-1.1,0c-0.2,0-0.3-0.1-0.3-0.2
			c0-0.1,0.1-0.2,0.2-0.2c0.2,0,0.4,0,0.5-0.1c0.3-0.1,0.4-0.3,0.5-0.8c0.1-0.6,0.1-1.8,0.1-3.1L13.8,33.5z"/>
		<path class="st0" d="M32.4,34.2c0.5,0.7,3,4.7,3.4,5.2c0.3,0.3,0.5,0.5,0.8,0.6c0.2,0.1,0.5,0.1,0.6,0.1s0.2,0.1,0.2,0.2
			c0,0.1-0.1,0.2-0.3,0.2h-0.5c-0.4,0-1.6,0-2.9,0c-0.4,0-0.5-0.1-0.5-0.2c0-0.1,0.1-0.2,0.2-0.2c0.1,0,0.2-0.1,0.1-0.3
			c-0.9-1.4-1.7-2.8-2.4-4l-2.3,3.5c-0.2,0.2-0.2,0.5-0.2,0.6s0.2,0.2,0.3,0.2c0.1,0,0.2,0,0.3,0c0.1,0,0.2,0.1,0.2,0.2
			c0,0.1-0.1,0.1-0.3,0.1h-0.3c-0.1,0-1.1-0.1-1.5-0.1c-0.3,0-1.1,0.1-1.3,0.1h-0.3c-0.2,0-0.2-0.1-0.2-0.1c0-0.1,0.1-0.2,0.2-0.2
			s0.3,0,0.6-0.1c0.5-0.1,0.7-0.4,1.2-1.1l3-4l-2.7-4.2c-0.4-0.6-0.7-0.9-1.2-1.1c-0.2-0.1-0.5-0.1-0.6-0.1s-0.2-0.1-0.2-0.2
			s0.1-0.1,0.3-0.1c0.4,0,1.6,0,2.3,0c0.2,0,1.2,0,1.7,0c0.2,0,0.3,0,0.3,0.1s-0.1,0.2-0.2,0.2s-0.2,0-0.4,0.1
			c-0.1,0-0.2,0.1-0.2,0.2s0.1,0.3,0.2,0.4c0.7,1.2,1.3,2.2,1.9,3.2c0.5-0.7,1.8-2.7,2.1-3.1c0.1-0.2,0.2-0.4,0.2-0.5
			s-0.1-0.2-0.3-0.2c-0.2-0.1-0.4-0.1-0.5-0.1S33,29.4,33,29.3s0.1-0.1,0.3-0.1c0.6,0,1.3,0,1.6,0s0.9,0,1.5,0c0.2,0,0.3,0,0.3,0.1
			s-0.1,0.2-0.2,0.2c-0.2,0-0.4,0-0.6,0.1c-0.4,0.1-0.6,0.5-1.1,1.1L32.4,34.2z"/>
		<path class="st0" d="M44.3,33.5c0-2.2,0-2.7,0-3.1c0-0.5-0.2-0.7-0.7-0.8c-0.1,0-0.4-0.1-0.6-0.1c-0.2,0-0.3-0.1-0.3-0.2
			s0.1-0.1,0.4-0.1c0.8,0,1.8,0,2.2,0c0.6,0,1.9,0,2.6,0c1.9,0,2.6,0.6,2.9,0.8c0.3,0.3,0.8,1,0.8,1.8c0,2.1-1.7,3.6-3.9,3.6
			c-0.1,0-0.4,0-0.5,0S47,35.3,47,35.2s0.2-0.2,0.5-0.2c0.9,0,2.1-0.9,2.1-2.4c0-0.5-0.1-1.5-0.9-2.2c-0.6-0.5-1.2-0.6-1.5-0.6
			c-0.2,0-0.5,0-0.7,0.1c-0.1,0-0.1,0.1-0.1,0.3V36c0,1.4,0,2.5,0.1,3.2c0.1,0.4,0.1,0.7,0.6,0.8c0.2,0,0.6,0.1,0.8,0.1
			s0.2,0.1,0.2,0.2c0,0.1-0.1,0.2-0.3,0.2c-1,0-2.1-0.1-2.5-0.1s-1.3,0.1-1.9,0.1c-0.2,0-0.3-0.1-0.3-0.2c0-0.1,0.1-0.2,0.2-0.2
			c0.2,0,0.4,0,0.5-0.1c0.3-0.1,0.4-0.3,0.5-0.8c0.1-0.6,0.1-1.8,0.1-3.1L44.3,33.5z"/>
		<path class="st0" d="M58.3,33.5c0-2.2,0-2.7,0-3.1c0-0.5-0.2-0.7-0.7-0.8c-0.1,0-0.4-0.1-0.6-0.1c-0.2,0-0.3-0.1-0.3-0.2
			s0.1-0.1,0.4-0.1c0.8,0,1.8,0,2.2,0c0.5,0,3.9,0,4.2,0s0.5-0.1,0.6-0.1c0.1,0,0.2-0.1,0.2-0.1c0.1,0,0.1,0.1,0.1,0.1
			c0,0.1-0.1,0.3-0.1,1c0,0.2-0.1,0.8-0.1,1c0,0.1-0.1,0.2-0.2,0.2s-0.1-0.1-0.1-0.2s0-0.4-0.1-0.5c-0.1-0.3-0.2-0.5-1-0.5
			c-0.3,0-2.1-0.1-2.4-0.1c-0.1,0-0.1,0.1-0.1,0.1v3.6c0,0.1,0,0.2,0.1,0.2c0.4,0,2.3,0,2.7,0s0.6-0.1,0.7-0.2
			c0.1-0.1,0.2-0.2,0.2-0.2c0.1,0,0.1,0.1,0.1,0.2c0,0.1,0,0.3-0.1,1.1c0,0.3-0.1,0.9-0.1,1s0,0.3-0.2,0.3c-0.1,0-0.1-0.1-0.1-0.1
			c0-0.2,0-0.3-0.1-0.5c-0.1-0.3-0.3-0.5-0.9-0.6c-0.3,0-2-0.1-2.4-0.1c-0.1,0-0.1,0.1-0.1,0.2v1.2c0,0.5,0,1.8,0,2.2
			c0,1,0.5,1.2,2.1,1.2c0.4,0,1.1,0,1.5-0.2c0.4-0.2,0.6-0.5,0.7-1.1c0-0.2,0.1-0.2,0.2-0.2s0.1,0.2,0.1,0.3c0,0.3-0.1,1.3-0.2,1.6
			c-0.1,0.4-0.2,0.4-0.8,0.4c-1.2,0-2.1,0-2.8-0.1c-0.8,0-1.3,0-1.8,0c-0.2,0-0.5,0-0.9,0s-0.8,0-1.1,0c-0.2,0-0.3-0.1-0.3-0.2
			c0-0.1,0.1-0.2,0.2-0.2c0.2,0,0.4,0,0.5-0.1c0.3-0.1,0.4-0.3,0.5-0.8c0.1-0.6,0.1-1.8,0.1-3.1L58.3,33.5z"/>
		<path class="st0" d="M73.6,34.7c0,0.2,0,0.2,0.1,0.3c0.3,0.1,0.8,0.1,1.2,0.1c0.6,0,0.8-0.1,1.1-0.2c0.5-0.3,1-1,1-2.2
			c0-2.1-1.4-2.6-2.3-2.6c-0.4,0-0.8,0-0.9,0.1c-0.1,0-0.1,0.1-0.1,0.2L73.6,34.7L73.6,34.7z M71.7,33.5c0-2.2,0-2.7,0-3.1
			c0-0.5-0.2-0.7-0.7-0.8c-0.1,0-0.4-0.1-0.6-0.1s-0.3-0.1-0.3-0.2s0.1-0.1,0.4-0.1c0.8,0,1.8,0,2.1,0c0.5,0,1.9,0,2.4,0
			c1,0,2.1,0.1,2.9,0.6c0.4,0.3,1.1,1,1.1,2c0,1.1-0.6,2.1-2.1,3.3c1.4,1.7,2.4,3,3.4,3.9c0.9,0.9,1.4,0.9,1.6,1c0.2,0,0.2,0,0.4,0
			c0.1,0,0.2,0.1,0.2,0.2c0,0.1-0.1,0.2-0.3,0.2h-1.5c-0.9,0-1.3-0.1-1.7-0.3c-0.7-0.3-1.2-1-2.1-2.2c-0.6-0.8-1.3-1.8-1.5-2
			c-0.1-0.1-0.2-0.1-0.3-0.1h-1.4c-0.1,0-0.1,0-0.1,0.1v0.2c0,1.4,0,2.5,0.1,3.1c0.1,0.4,0.1,0.7,0.6,0.8c0.2,0,0.6,0.1,0.8,0.1
			c0.1,0,0.2,0.1,0.2,0.2c0,0.1-0.1,0.2-0.3,0.2c-0.9,0-2.2-0.1-2.4-0.1c-0.3,0-1.3,0.1-1.9,0.1c-0.2,0-0.3-0.1-0.3-0.2
			c0-0.1,0.1-0.2,0.2-0.2c0.2,0,0.4,0,0.5-0.1c0.3-0.1,0.4-0.3,0.5-0.8c0.1-0.6,0.1-1.8,0.1-3.1L71.7,33.5z"/>
		<path class="st0" d="M89,33.5c0-2.2,0-2.7,0-3.1c0-0.5-0.2-0.7-0.5-0.8c-0.2-0.1-0.4-0.1-0.6-0.1s-0.2,0-0.2-0.2
			c0-0.1,0.1-0.1,0.4-0.1c0.6,0,1.6,0,2.1,0c0.4,0,1.4,0,2,0c0.2,0,0.3,0,0.3,0.1s-0.1,0.2-0.2,0.2c-0.2,0-0.3,0-0.5,0.1
			c-0.4,0.1-0.5,0.3-0.6,0.8c0,0.5,0,0.9,0,3.1v2.6c0,1.4,0,2.6,0.1,3.2c0.1,0.4,0.2,0.6,0.6,0.7c0.2,0,0.6,0.1,0.8,0.1
			c0.2,0,0.2,0.1,0.2,0.2c0,0.1-0.1,0.2-0.3,0.2c-1,0-2.1-0.1-2.5-0.1s-1.4,0.1-2,0.1c-0.2,0-0.3-0.1-0.3-0.2c0-0.1,0.1-0.2,0.2-0.2
			c0.2,0,0.4,0,0.5-0.1c0.3-0.1,0.4-0.3,0.5-0.7c0.1-0.6,0.1-1.8,0.1-3.2L89,33.5z"/>
		<path class="st0" d="M99.6,33.5c0-2.2,0-2.7,0-3.1c0-0.5-0.2-0.7-0.7-0.8c-0.1,0-0.4-0.1-0.6-0.1S98,29.4,98,29.3s0.1-0.1,0.4-0.1
			c0.8,0,1.8,0,2.2,0c0.5,0,3.9,0,4.2,0c0.3,0,0.5-0.1,0.6-0.1s0.2-0.1,0.2-0.1c0.1,0,0.1,0.1,0.1,0.1c0,0.1-0.1,0.3-0.1,1
			c0,0.2-0.1,0.8-0.1,1c0,0.1-0.1,0.2-0.2,0.2s-0.1-0.1-0.1-0.2s0-0.4-0.1-0.5c-0.1-0.3-0.2-0.5-1-0.5c-0.3,0-2.1-0.1-2.4-0.1
			c-0.1,0-0.1,0.1-0.1,0.1v3.6c0,0.1,0,0.2,0.1,0.2c0.3,0,2.3,0,2.7,0c0.4,0,0.6-0.1,0.7-0.2c0.1-0.1,0.2-0.2,0.2-0.2
			c0.1,0,0.1,0.1,0.1,0.2c0,0.1,0,0.3-0.1,1.1c0,0.3-0.1,0.9-0.1,1s0,0.3-0.2,0.3c-0.1,0-0.1-0.1-0.1-0.1c0-0.2,0-0.3-0.1-0.5
			c-0.1-0.3-0.3-0.5-0.9-0.6c-0.3,0-2-0.1-2.4-0.1c-0.1,0-0.1,0.1-0.1,0.2v1.2c0,0.5,0,1.8,0,2.2c0,1,0.5,1.2,2.1,1.2
			c0.4,0,1,0,1.5-0.2c0.4-0.2,0.6-0.5,0.7-1.1c0-0.2,0.1-0.2,0.2-0.2s0.1,0.2,0.1,0.3c0,0.3-0.1,1.3-0.2,1.6
			c-0.1,0.4-0.2,0.4-0.8,0.4c-1.2,0-2.1,0-2.8-0.1c-0.8,0-1.3,0-1.8,0c-0.2,0-0.5,0-0.9,0s-0.8,0-1.1,0c-0.2,0-0.3-0.1-0.3-0.2
			c0-0.1,0.1-0.2,0.2-0.2c0.2,0,0.4,0,0.5-0.1c0.3-0.1,0.4-0.3,0.5-0.8c0.1-0.6,0.1-1.8,0.1-3.1L99.6,33.5z"/>
		<path class="st0" d="M114.2,38.4c0,1.1,0.2,1.5,0.5,1.6s0.6,0.1,0.8,0.1c0.2,0,0.3,0.1,0.3,0.2c0,0.1-0.1,0.2-0.3,0.2
			c-1,0-1.7-0.1-2-0.1c-0.1,0-0.9,0.1-1.7,0.1c-0.2,0-0.4,0-0.4-0.2c0-0.1,0.1-0.2,0.2-0.2c0.2,0,0.5,0,0.7-0.1
			c0.4-0.1,0.5-0.5,0.5-1.8l0.1-8.7c0-0.3,0.1-0.5,0.3-0.5c0.2,0,0.4,0.2,0.7,0.5c0.2,0.2,2.5,2.5,4.7,4.7c1,1,3.1,3.1,3.3,3.3h0.1
			l-0.2-6.6c0-0.9-0.2-1.2-0.5-1.3c-0.2-0.1-0.6-0.1-0.8-0.1c-0.2,0-0.2-0.1-0.2-0.2s0.2-0.1,0.4-0.1c0.8,0,1.6,0,2,0
			c0.2,0,0.8,0,1.5,0c0.2,0,0.4,0,0.4,0.1s-0.1,0.2-0.3,0.2c-0.2,0-0.3,0-0.5,0.1c-0.4,0.1-0.5,0.4-0.6,1.2l-0.2,9.3
			c0,0.3-0.1,0.5-0.2,0.5c-0.3,0-0.5-0.2-0.6-0.3c-1-0.9-2.9-2.7-4.5-4.3c-1.7-1.6-3.3-3.4-3.6-3.6H114L114.2,38.4z"/>
		<path class="st0" d="M131.7,39c-1.5-1.3-1.9-2.9-1.9-4.4c0-1,0.3-2.7,1.8-4c1.1-1,2.6-1.6,4.9-1.6c1,0,1.5,0.1,2.2,0.2
			c0.6,0.1,1.1,0.2,1.5,0.2c0.2,0,0.2,0.1,0.2,0.2s0,0.3-0.1,0.8c0,0.5,0,1.3-0.1,1.6c0,0.2-0.1,0.4-0.2,0.4c-0.1,0-0.2-0.1-0.2-0.3
			c0-0.5-0.2-1-0.6-1.4c-0.5-0.5-1.6-0.9-3-0.9c-1.3,0-2.2,0.2-2.9,0.8c-1.1,1-1.4,2.4-1.4,3.8c0,3.5,2.7,5.2,4.8,5.2
			c1.4,0,2.1-0.1,2.7-0.8c0.3-0.3,0.5-0.7,0.5-1c0-0.2,0.1-0.3,0.2-0.3c0.1,0,0.2,0.1,0.2,0.3s-0.2,1.5-0.3,2
			c-0.1,0.3-0.1,0.3-0.4,0.4c-0.6,0.2-1.8,0.3-2.8,0.3C134.8,40.6,133.1,40.2,131.7,39"/>
		<path class="st0" d="M147.3,33.5c0-2.2,0-2.7,0-3.1c0-0.5-0.2-0.7-0.7-0.8c-0.1,0-0.4-0.1-0.6-0.1c-0.2,0-0.3-0.1-0.3-0.2
			s0.1-0.1,0.4-0.1c0.8,0,1.8,0,2.2,0c0.5,0,3.9,0,4.2,0s0.5-0.1,0.6-0.1s0.2-0.1,0.2-0.1c0.1,0,0.1,0.1,0.1,0.1
			c0,0.1-0.1,0.3-0.1,1c0,0.2-0.1,0.8-0.1,1c0,0.1-0.1,0.2-0.2,0.2c-0.1,0-0.1-0.1-0.1-0.2s0-0.4-0.1-0.5c-0.1-0.3-0.2-0.5-1-0.5
			c-0.3,0-2.1-0.1-2.4-0.1c-0.1,0-0.1,0.1-0.1,0.1v3.6c0,0.1,0,0.2,0.1,0.2c0.3,0,2.3,0,2.7,0s0.6-0.1,0.7-0.2
			c0.1-0.1,0.2-0.2,0.2-0.2c0.1,0,0.1,0.1,0.1,0.2c0,0.1,0,0.3-0.1,1.1c0,0.3-0.1,0.9-0.1,1s0,0.3-0.2,0.3c-0.1,0-0.1-0.1-0.1-0.1
			c0-0.2,0-0.3-0.1-0.5c-0.1-0.3-0.3-0.5-0.9-0.6c-0.3,0-2-0.1-2.4-0.1c-0.1,0-0.1,0.1-0.1,0.2v1.2c0,0.5,0,1.8,0,2.2
			c0,1,0.5,1.2,2.1,1.2c0.4,0,1,0,1.5-0.2c0.4-0.2,0.6-0.5,0.7-1.1c0-0.2,0.1-0.2,0.2-0.2c0.1,0,0.1,0.2,0.1,0.3
			c0,0.3-0.1,1.3-0.2,1.6c-0.1,0.4-0.2,0.4-0.8,0.4c-1.2,0-2.1,0-2.8-0.1c-0.8,0-1.3,0-1.8,0c-0.2,0-0.5,0-0.9,0s-0.8,0-1.1,0
			c-0.2,0-0.3-0.1-0.3-0.2c0-0.1,0.1-0.2,0.2-0.2c0.2,0,0.4,0,0.5-0.1c0.3-0.1,0.4-0.3,0.5-0.8c0.1-0.6,0.1-1.8,0.1-3.1L147.3,33.5z
			"/>
	</g>
	
		<linearGradient id="SVGID_1_" gradientUnits="userSpaceOnUse" x1="-103.9459" y1="48.1926" x2="-103.278" y2="47.3004" gradientTransform="matrix(57.6009 0 0 -58 5999.6914 2802)">
		<stop  offset="0" style="stop-color:#BD1F28"/>
		<stop  offset="1" style="stop-color:#751F23"/>
	</linearGradient>
	<path class="st5" d="M28.8,0C12.9,0,0,13,0,29s12.9,29,28.8,29s28.8-13,28.8-29S44.7,0,28.8,0z"/>
	<g transform="translate(9 9)">
		<path class="st0" d="M0.4,19.4L11.3,0.8l10.9,18.6H0.4z"/>
		<path class="st4" d="M22.3,22.6L11.4,41.1l-11-18.5C0.4,22.6,22.3,22.6,22.3,22.6z"/>
		<path class="st0" d="M24.5,19.3l7.2-12.2l7.2,12.2H24.5z"/>
		<path class="st4" d="M38.8,22.6l-7.1,12l-7.1-12C24.6,22.6,38.8,22.6,38.8,22.6z"/>
	</g>
</g>
</svg>
