<svg id="Layer_1" data-name="Layer 1" xmlns="http://www.w3.org/2000/svg" viewBox="0 0 417.02 512"><defs><style>.cls-1{fill:#ff6e76;}</style></defs><path class="cls-1" d="M310.84,0c3,46.53-17.67,81.08-54.89,106.76-13.39,9.24-29,12-45.2,11.33-3.27-.12-2.74-1.92-2.82-3.88-1.11-30,9.53-55.73,29.6-77.57C255.06,17.57,277,6,302.37,1c.67-.13,1.3-.19,1.47-1Z"/><path class="cls-1" d="M0,279.22c-.19-37.69,7.91-70.67,28.18-100,21.16-30.61,50.16-49,87.23-53.9,15.25-2,30.15.71,44.78,5.29,12.7,4,24.84,9.41,37.35,13.85,10.27,3.64,20.1,2.81,30.15-1.06,17.66-6.79,35.22-13.9,53.92-17.6,23.76-4.71,46.67-1.44,69.11,6.81,20.85,7.67,38,20.26,50.92,38.52,2,2.82,2,4-1,6-15.88,10.51-29.49,23.32-38.82,40.18-13.44,24.3-15.34,50.3-10.55,77,6.54,36.5,28.29,61.5,60.38,78.43,6.22,3.28,6.28,3.32,3.88,9.85a317.3,317.3,0,0,1-66.07,107.69C330.06,511.15,306,516,279.12,507.47c-10.27-3.26-20.36-7.15-30.51-10.82-21.27-7.7-42.39-6.6-63.51.72-12.85,4.45-25.34,9.89-38.65,13.11-15.83,3.83-29.86.2-43.16-8.39-11.51-7.42-20.8-17.2-29.29-27.69-34.71-42.88-58.39-91-68.6-145.49C2.18,311.71-.26,294.41,0,279.22Z"/></svg>