<svg id="Layer_1" data-name="Layer 1" xmlns="http://www.w3.org/2000/svg" viewBox="0 0 404.93 514.97"><defs><style>.cls-1{fill:#ff6e76;}</style></defs><path class="cls-1" d="M276,514.82c-41.16,0-82.33-.07-123.49.1-4.2,0-5.35-.85-5.34-5.23q.29-73,0-145.91c0-3.4.85-5.48,3.75-7.46,20.21-13.8,40.28-27.79,60.38-41.75a15,15,0,0,1,7.26-3.07,141.69,141.69,0,0,0,72-28.61c3-2.25,5.08-2.82,8.53-.82,61.45,35.66,97,88.37,104.5,159.27,2.48,23.27.47,46.69,1.11,70,.13,4.8-2.95,3.41-5.26,3.41Q337.75,514.86,276,514.82Zm-73.58-147.1a18.39,18.39,0,1,0,18.4,18.08A18.44,18.44,0,0,0,202.42,367.72Zm.3,73.55a18.39,18.39,0,1,0,18.1,18.39A18.42,18.42,0,0,0,202.72,441.27Z"/><path class="cls-1" d="M202.4,147.08c34.45,0,68.9.08,103.35-.09,4.24,0,5.66.93,6.21,5.44,7.12,58.56-34.26,113.44-92.3,122.08-59.08,8.79-114.43-29.95-125.4-87.72a118.79,118.79,0,0,1-1.39-34.25c.5-5,2.46-5.57,6.74-5.55C133.87,147.16,168.14,147.08,202.4,147.08Z"/><path class="cls-1" d="M202.41,110.31c-35,0-70.06-.08-105.08.11-4.25,0-5.36-.93-5.31-5.27.24-23.73.09-47.47.12-71.2,0-11.18,4.83-17.21,15.57-20.3C151.82,1,196.65-3.08,242.27,2.37a344.89,344.89,0,0,1,56.62,11.68c8.73,2.57,13.77,9.24,13.82,18.24.11,24.7-.08,49.39.16,74.08,0,4.2-1.94,4-4.81,4Q255.25,110.28,202.41,110.31Z"/><path class="cls-1" d="M159.21,306c-13.33,9.23-25.78,18.08-38.48,26.57-7.19,4.82-10.32,11.08-10.3,19.76.18,52.26,0,104.53.21,156.8,0,4.82-1.18,5.87-5.9,5.84q-49.68-.35-99.36,0c-4.29,0-5.4-1-5.27-5.29.67-22.76-1.25-45.6,1.1-68.3,7-67.48,40.07-118.67,97-155,7.81-5,13.63-6.54,21.79.34C131,295.9,144.59,301.14,159.21,306Z"/></svg>