<svg id="Layer_1" data-name="Layer 1" xmlns="http://www.w3.org/2000/svg" viewBox="0 0 511.54 512"><defs><style>.cls-1{fill:#ff6e76;}</style></defs><path class="cls-1" d="M11.12,512C2.54,508,0,501.26,0,492Q.29,255.58.14,19.18c0-13.76,5.21-19,18.91-19q11.49,0,23,0c12.42,0,18,5.56,18,17.87v248.4q0,113.45.1,226.9c0,9.29-3.29,15.52-12.09,18.64Z"/><path class="cls-1" d="M462.6,512c-8.57-4-11.14-10.72-11.13-20q.28-236.47.14-472.94c0-13.69,5.22-18.88,19-18.88,7,0,14,.4,20.95-.1,9.3-.68,16,2.52,20,11.09V501c-2.62,5.18-6.35,9.13-12,11Z"/><path class="cls-1" d="M90,269.64q0-87.21-.09-174.4c0-4,.68-5.71,5-5.17a65.16,65.16,0,0,0,10,.06,15,15,0,0,0,15-14.85c.13-4-.18-8,.1-12,.2-2.88-1.08-3.2-3.46-3.17-7.65.12-15.31-.06-23,.1-2.66.06-3.78-.44-3.69-3.45.22-7.65.27-15.33,0-23-.13-3.36,1.16-3.74,4-3.67,7.32.17,14.65-.08,22,.12,3.08.09,4.52-.49,4.18-4A91.55,91.55,0,0,1,120,15.78C120.16,6.9,126.47.28,134.82.19,143.37.1,149.81,6.79,150,16c.06,3.67.19,7.34,0,11-.17,2.7.8,3.33,3.35,3.28,7.82-.15,15.65-.18,23.47,0,2.7.07,3.38-.82,3.26-3.36-.19-4-.17-8,0-12a14.95,14.95,0,0,1,29.89,0c.16,4,.17,8,0,12-.11,2.49.48,3.47,3.24,3.4,7.81-.2,15.64-.17,23.46,0,2.5,0,3.55-.5,3.38-3.25-.25-4-.17-8,0-12a14.95,14.95,0,0,1,29.89-.24,73.29,73.29,0,0,1,0,11c-.43,3.92,1.08,4.53,4.66,4.52,43.6-.13,87.21-.08,130.81-.08,4.5,0,9,.14,13.48-.06,2.49-.11,3.05.79,3,3.11-.13,7.5-.3,15,.06,22.48.19,3.89-1.06,4.55-4.67,4.54-41.6-.13-83.21-.08-124.82-.08-6.33,0-12.66.15-19-.07-2.89-.11-3.89.84-3.49,3.61a21.44,21.44,0,0,1,0,3q0,169.14,0,338.29c0,22.38-12.79,39.79-33.32,45.37-14.09,3.82-27,1.07-38.65-7.58-2.31-1.73-3.52-1.68-5.84,0-16.88,12.39-37.35,12.36-54.17-.09-2.43-1.8-3.64-1.47-5.85.16-11,8.16-23.3,10.81-36.79,8.1-3.75-.75-5.31-2.06-5.3-6.45C90.1,386.23,90,327.93,90,269.64ZM150,272.11c0-24.64,0-49.28,0-73.92,0-9.28-6.28-16-14.82-16.06-8.73-.09-15,6.68-15.13,16.25,0,2.33,0,4.66,0,7q0,69.93,0,139.85c0,6.75,2.26,12.06,8.43,15.17,10.3,5.21,21.51-2.22,21.55-14.35C150,321.4,150,296.76,150,272.11Zm30,0q0,37,0,73.92c0,7.18,3.54,12.6,9.53,15,10.27,4,20.4-3.46,20.41-15.25q0-73.67,0-147.34c0-9.58-6.4-16.35-15.12-16.26S180,189,179.94,198.69Q179.9,235.4,179.93,272.11ZM165.26,60.16c-4,0-8,.11-11.94,0-2.39-.09-3.62.32-3.43,3.17.27,4.13-.07,8.3.12,12.44a14.94,14.94,0,0,0,29.86.13c.22-4.3-.06-8.63.11-12.94.08-2.18-.58-2.9-2.79-2.81C173.22,60.28,169.24,60.16,165.26,60.16Zm58.87,0c-4.09.41-11-2.18-13.39.9-2.5,3.25-.73,9.8-.83,14.91a4.19,4.19,0,0,0,0,.5c.93,9.36,10.19,15.7,19,13,9.53-2.92,14-12.47,10.53-27.2-1.2-5.06-8.29-.91-12.53-2.09A13.1,13.1,0,0,0,224.13,60.16Z"/><path class="cls-1" d="M299.79,240.88q0-72.93-.08-145.87c0-3.67.6-5,4.72-5,23.46.23,46.92.1,70.38.12,10.92,0,16.86,6,16.86,17q0,133.88,0,267.75c0,11.05-5.93,17.08-16.8,17.1-23.63,0-47.25-.08-70.88.1-3.57,0-4.29-1-4.29-4.4Q299.88,314.32,299.79,240.88Z"/></svg>