<svg id="Layer_1" data-name="Layer 1" xmlns="http://www.w3.org/2000/svg" viewBox="0 0 525.97 455.6"><defs><style>.cls-1{fill:#ff6e76;}</style></defs><path class="cls-1" d="M263.25,122.66q110.87,0,221.73-.1c4.6,0,6,.8,6,5.78q-.27,153.29-.14,306.56c0,14.15-6.57,20.68-20.78,20.69H424c-14.23,0-20.84-6.54-20.85-20.62,0-45.62.13-91.24,0-136.86-.19-54.74-34.86-101.43-87.07-117.59a108,108,0,0,0-32.81-5.19c-17.69.13-35.38-.92-53.06.89C179.28,181.42,133.75,224,125,274.67a152.42,152.42,0,0,0-2.22,26.12q.09,67.07,0,134.12c0,14.14-6.58,20.67-20.79,20.68-15.88,0-31.76,0-47.64,0-11.92,0-19.18-7.17-19.18-19q0-154.65-.15-309.3c0-4.77,1.92-4.69,5.37-4.68Q151.84,122.71,263.25,122.66Z"/><path class="cls-1" d="M262.53,87.62q-128.1,0-256.2.15C.86,87.78-.11,86.27,0,81.2c.37-15,.08-29.92.14-44.88C.24,15.16,15.22,0,36.28,0Q262.93,0,489.56,0c21.15,0,36.17,15,36.28,36.15.08,15.5-.15,31,.13,46.52.07,4.12-1,5-5.05,5Q391.73,87.53,262.53,87.62Z"/><path class="cls-1" d="M280.83,315.11l44.88-41.37c23.23,32.7,31,79.14,6.65,112.56-21.19,29.1-51.15,39-85.46,32.37-35.27-6.79-57.61-29.3-65.93-64.36-6.63-27.94,1.72-52.53,19.53-74.36,9.61-11.77,20.78-22,31.63-32.59s21.69-21.19,29.32-34.48c1.53-2.65,2.64-2.21,4.39-.43,5.2,5.28,7.49,12,9.22,18.91,5.87,23.42,5.94,47.32,5.78,71.24C280.81,306.39,280.83,310.18,280.83,315.11Z"/></svg>