<svg id="Layer_1" data-name="Layer 1" xmlns="http://www.w3.org/2000/svg" viewBox="0 0 536 380.61"><defs><style>.cls-1{fill:#ff6e76;}</style></defs><path class="cls-1" d="M298.8,380.57c-59.62-.45-118.38-7.07-175.41-25.32C97,346.79,71.58,336,49.48,318.69c-17.4-13.59-30.85-29.91-34.55-52.55a50.08,50.08,0,0,1-.65-7.73c-.08-20.32.63-40.69-.32-61C12.82,172.83,31.83,143.9,61,135.31c5.88-1.73,14-1.87,17-5.83s.94-11.84,1-18c.06-7.77.17-15.55,0-23.31C78.55,72.7,71.48,61,57.76,54s-27.3-5.68-40.13,2.85c-1,.66-1.89,1.47-2.88,2.13C10,62.07,5.12,61.46,2,57.41S-.63,48.3,3.73,44.71A54.6,54.6,0,0,1,42.48,31.84c33,1.85,56.77,28.3,55.23,61.26-.18,3.74.29,4.44,4,3.23,24.34-8,48.76-15.77,73.12-23.71,1.27-.42,2.89-.36,3.44-2.6,4.78-19.47-7.62-42.48-26.85-49.44C139,16.09,127.55,18.14,117,25.86c-1.29.94-2.43,2.1-3.79,2.91-3.84,2.29-7.72,2.18-11-1a8.51,8.51,0,0,1-1.64-10.93,19.25,19.25,0,0,1,7.1-7.12c18.09-11,36.9-13.4,56.14-3.44C183.58,16.52,194.73,33,196.08,55.23c.79,12.91.33,25.9.14,38.85-.06,3.71,1.05,4.71,4.7,4.72,14.32,0,28.66-1.72,43,.42,12.35,1.85,21.77,8,26.68,19.45,3.57,8.38,9.44,11.71,18.11,13.17,30.7,5.16,61.62,7.56,92.64,9.64,38.59,2.59,76,10.57,110.34,29.51,11.94,6.58,22.82,14.56,31.61,25.12,8.3,10,13,21.14,12.65,34.45-.41,18.13-.57,36.29,0,54.4.48,14.25-5,25.5-14.65,35.22C507.57,334,490.59,342.71,472.88,350c-42.16,17.39-86.3,26.11-131.66,29.18C327.1,380.15,313,380.77,298.8,380.57Zm-120.59-219-72.95,20.55c-1.53.43-3,.95-4.59,1.27-2.78.58-3.66,2.06-3.62,5q.26,18.53,0,37.06a8.85,8.85,0,0,1-8.63,8.93A9.22,9.22,0,0,1,79.1,226a43.84,43.84,0,0,1-.1-5.38c0-22.32,0-44.64,0-67,0-3.2-.15-4.72-4.17-3.47-8.2,2.54-16.29,5.14-23.36,10.2C35.3,172,23.54,193.51,41,217.47c1.64,2.25,3.32,4.48,5.14,6.59,12.61,14.57,28.42,24.85,45.51,33.21,50.93,24.93,105.56,34.53,161.5,38.15C292.61,298,332,297.21,371.28,292c38.68-5.14,76.1-14.6,111.14-32.18,11.79-5.92,23-12.74,30.83-23.88,4.81-6.84,5.45-13.71,1-21.09-5.18-8.55-12.23-15.19-20.35-20.73-31.31-21.35-66.92-30-103.87-33.53-32.49-3.09-65.13-4.37-97.46-9.57-17.2-2.76-32.2-7.11-38.68-25.69-1.81-5.19-6.88-7.64-12.44-7.92-13.13-.66-26.26-1.24-39.43-.81-4.62.15-5.85,1.52-5.81,6.14.23,26.9.12,53.81.1,80.71,0,2.36.36,4.8-.84,7-2.14,4-5.52,5.8-9.91,4.89-5-1-7.3-4.54-7.31-9.51C178.19,191.3,178.21,176.76,178.21,161.53Zm0-70.95C151.69,99.21,125.85,107.64,100,116c-2.07.67-2.89,1.63-2.88,3.77.05,14.15.08,28.3,0,42.44,0,2.94,1,3.27,3.54,2.54q37.25-10.65,74.54-21.13c2.3-.65,3.12-1.75,3.1-4.18C178.16,123.47,178.21,107.54,178.21,90.58Z"/><path class="cls-1" d="M473.07,224.19c-9.39-7.35-19.64-12-30.24-15.9-22.62-8.33-46.17-12.1-70.12-13.1C338,193.75,303.56,190.37,269.63,183c-20-4.32-34.5-16.61-44.3-34.42-2.7-4.9-1.24-9.91,3-12.5,4-2.41,9.76-1.59,12,2.73,11,20.64,29.8,26.73,51.19,30.1,32.14,5.05,64.54,6.63,96.85,9.46,28.08,2.46,55.47,8.21,80.74,21.5a96.06,96.06,0,0,1,23.13,16.74c7,6.92,6.73,11.58-1.3,17.51-11,8.1-23.41,13.37-35.94,18.48-37.46,15.27-76.78,21.92-116.82,24.71-31.62,2.2-63.34,3-94.95.16a492.2,492.2,0,0,1-134.23-31.63,26.46,26.46,0,0,1-3.77-1.78c-5.38-3.12-7.14-7.71-4.86-12.45s7.06-6.4,12.66-4.1a482.7,482.7,0,0,0,52.38,17.95c50.23,14.16,101.56,16.83,153.33,14.75,33.08-1.34,65.87-5.16,97.95-13.75A267.24,267.24,0,0,0,473.07,224.19Z"/></svg>