<svg id="Layer_1" data-name="Layer 1" xmlns="http://www.w3.org/2000/svg" viewBox="0 0 287.46 335.38"><defs><style>.cls-1{fill:#f26c77;}</style></defs><path class="cls-1" d="M287.45,167.8q0,65.1,0,130.19c0,21.95-15.37,37.24-37.41,37.24-70.83,0-141.65-.22-212.48.15A37.25,37.25,0,0,1,0,298C.32,211.08.13,124.16.14,37.24.14,18.06,11.72,4,30.47.4a31.94,31.94,0,0,1,6-.38Q143.79,0,251.15,0c20.65,0,36.28,15.72,36.29,36.47Q287.49,102.14,287.45,167.8ZM48,203.58c0,52.45,43.08,95.67,95.43,95.74a96.17,96.17,0,0,0,96.11-95.86c.13-52.45-43.25-95.78-95.82-95.7S48,150.9,48,203.58ZM66.15,59.87c5.72,0,11.44.07,17.17,0,7.17-.11,12.62-5.4,12.57-12S90.42,36,83.15,35.94q-17.16-.11-34.34,0c-7.29,0-12.66,5.12-12.75,11.84s5.45,12,12.92,12.08C54.7,59.91,60.42,59.87,66.15,59.87ZM239.63,36a12.24,12.24,0,0,0-12,11.77,12,12,0,1,0,23.91.16A12.24,12.24,0,0,0,239.63,36Zm-24,12.24A12.24,12.24,0,0,0,204,36c-6.24-.3-12,5-12.33,11.45a12,12,0,1,0,23.9.79Z"/></svg>