<svg id="Layer_1" data-name="Layer 1" xmlns="http://www.w3.org/2000/svg" viewBox="0 0 510.9 339.15"><defs><style>.cls-1{fill:#ff6e76;}</style></defs><path class="cls-1" d="M112.31,130h47.11c23.57,0,41.05,17.59,41.07,41.26,0,2.18-.74,4.84.24,6.39s3.84.38,5.86.62a20.18,20.18,0,0,1,17.94,19.91c.08,6.61.05,13.23,0,19.84,0,4.85-3.53,8.43-8.08,8.4s-7.92-3.63-8-8.53c0-6.28,0-12.56,0-18.83A5.3,5.3,0,0,0,201,194.3c-1,.44-.49,1.32-.5,2q0,17.7,0,35.41c0,13.89-.05,27.78,0,41.67q.1,19.69-14.91,32.27a2.89,2.89,0,0,0-1.16,2.53q.07,7.16,0,14.31c-.07,9.53-6.95,16.42-16.48,16.43-3.5,0-7,.4-10.5-.29a15.92,15.92,0,0,1-13.1-15.79c0-2.09-.05-4.18,0-6.28,0-1.15-.08-1.76-1.56-1.76q-30.57.09-61.14,0c-1.25,0-1.53.42-1.49,1.58.08,2.34.07,4.69,0,7a15.71,15.71,0,0,1-12.43,15,39.51,39.51,0,0,1-14.94,0,15.61,15.61,0,0,1-12.68-15.32q-.12-7.39,0-14.81a3.37,3.37,0,0,0-1.41-2.93c-9.61-8.12-14.62-18.48-14.64-31.11-.05-25.53,0-51.05-.08-76.58,0-1.11,1.22-3-1-3.39-3.91-.62-6.36.64-6.85,3.3a12.13,12.13,0,0,0-.08,2c0,6,0,12.06,0,18.08,0,5.09-3.38,8.71-8,8.72s-8-3.63-8-8.72q0-9.42,0-18.83C.07,187,8.71,178.3,20.54,178.21c3.53,0,3.65,0,3.51-3.49-.38-9.41,1.12-18.35,6.46-26.31,8-11.87,19.15-18.18,33.44-18.36C80.07,129.84,96.19,130,112.31,130Zm0,32.14c-18.62,0-37.24,0-55.86,0-8.93,0-16.16,6.7-16.25,15.36q-.24,22.71,0,45.43A15.61,15.61,0,0,0,53.42,238a380.75,380.75,0,0,0,46.34,4.26,381.88,381.88,0,0,0,70.38-4.12c9.23-1.41,14.3-7.62,14.31-17q0-20.84,0-41.67c0-10.72-6.64-17.37-17.32-17.37Zm-52,104.46a12.05,12.05,0,1,0,11.92,12.28A12.09,12.09,0,0,0,60.26,266.6Zm104.26,0a12.05,12.05,0,1,0,11.91,12.29A12.09,12.09,0,0,0,164.52,266.6Z"/><path class="cls-1" d="M363,271.05q-54.71,0-109.42.06c-3,0-4.28-.41-4.68-4-4.13-36.68.08-72.4,11.6-107.35,4-12.16,12.3-18.14,25.28-18.19,18.84-.08,37.68,0,56.53,0q47.18,0,94.37,0c14.78,0,22.27,5.21,27.44,19.16,12.83,34.61,17.7,70.17,13.15,107-.47,3.8-2.39,3.41-4.86,3.41Q417.7,271,363,271.05Zm-46.56-93.74c-8.66,0-17.32-.06-26,0-8.19.07-12,3.93-12.06,12q-.08,15.27,0,30.55c0,8,4,12.25,11.91,12.29q26.2.13,52.42,0c8,0,12.05-4.19,12.1-12.13q.1-15.28,0-30.55c-.05-8.28-4-12.14-12.4-12.2C333.75,177.26,325.09,177.31,316.43,177.31Zm93.39,0c-8.82,0-17.63-.07-26.44,0-7.8.09-11.8,4.07-11.87,11.8q-.12,15.51,0,31c.05,7.75,4.07,12,11.71,12.05q26.43.18,52.88,0c7.71,0,11.78-4.24,11.83-11.91.05-10.18,0-20.36,0-30.54,0-8.67-3.77-12.38-12.59-12.43C426.83,177.27,418.33,177.31,409.82,177.31Z"/><path class="cls-1" d="M227.86,102.88c-6.61,0-11.54-4.3-12.33-9.89s2.81-10.85,8.84-12.66c11.45-3.44,22.95-6.75,34.42-10.13Q376.45,35.58,494.1.91c5.41-1.6,10.25-1.41,14.08,3.17A10.7,10.7,0,0,1,509.77,16c-1.75,3.92-5.16,5.67-9.13,6.83q-42.49,12.43-85,25-91.29,26.85-182.6,53.67C231.05,102.14,229,102.6,227.86,102.88Z"/><path class="cls-1" d="M362.84,304.71c34,0,68.05.05,102.07-.08,3.62,0,4.53.65,3.12,4.15-2,4.91-3.45,10-5.4,14.94A23.81,23.81,0,0,1,440,339.12q-77.91.06-155.84,0a23.85,23.85,0,0,1-22.89-16.32c-1.64-4.72-2.74-9.62-4.36-14.34-1.09-3.13-.27-3.83,2.93-3.82,25.06.12,50.12.07,75.18.07Z"/><path class="cls-1" d="M363,281.61c35.85,0,71.7.07,107.55-.1,4.08,0,4.32,1.3,3.54,4.61-1.93,8.2-1.83,8.23-10.27,8.23-68.2,0-136.41-.08-204.62.15-5,0-6.45-1.62-7.15-6-1.11-6.92-1.33-6.88,5.68-6.88Z"/><path class="cls-1" d="M374.93,70.76c0,19.62,0,38.76,0,57.9,0,2-.67,2.6-2.62,2.57-6.08-.1-12.16-.07-18.23,0-1.75,0-2.79-.19-2.78-2.4q.12-24.61,0-49.24a2.2,2.2,0,0,1,1.94-2.47C360.4,75.08,367.48,73,374.93,70.76Z"/></svg>