<svg id="Layer_1" data-name="Layer 1" xmlns="http://www.w3.org/2000/svg" viewBox="0 0 536 286.41"><defs><style>.cls-1{fill:#ff6e76;}</style></defs><path class="cls-1" d="M261.06,286.41c-47.24-.29-100.86-6-152.91-22.48-29.37-9.3-57.36-21.49-80.91-42.11A89.68,89.68,0,0,1,9.78,201.61c-13-21-13.11-42.15,0-63.11,11.31-18,28-30.1,46.18-40.28,29.29-16.41,61.07-25.82,93.66-32.81a8.72,8.72,0,0,1,10.56,6.73c1.2,4.91-1.56,9.37-7.17,10.72-13.89,3.34-27.81,6.55-41.39,11-24.26,8-47.66,17.75-68,33.65a81.94,81.94,0,0,0-17,17.6C15,161.79,15,178.86,26.87,195.4c11.05,15.42,26.5,25.38,43,33.79,30.2,15.39,62.54,24.24,95.69,30.26a574.78,574.78,0,0,0,156.15,6.61c46.43-4.28,91.91-13,134.79-32.23,18.26-8.18,35.46-18.08,48.82-33.46,17-19.52,17-40.79.1-60.41-12.66-14.69-28.95-24.31-46.18-32.48-22.92-10.86-47.06-18.06-71.76-23.54-1.63-.36-3.28-.66-4.88-1.11-5.4-1.53-8.36-6.07-7.15-10.85s5.86-7.67,11.25-6.54c22.74,4.77,45.07,11,66.58,19.86,19.82,8.18,38.64,18.16,54.94,32.41A97.64,97.64,0,0,1,524,135c16.21,23.07,16.06,48.34-.66,71-14.45,19.58-34.39,32.07-55.84,42.41-31.71,15.28-65.4,24.08-99.91,29.95C334.69,284,301.52,286.38,261.06,286.41Z"/><path class="cls-1" d="M196.89,0a8.83,8.83,0,0,1,7.58,4.85,8.25,8.25,0,0,1-.83,9.42A26.08,26.08,0,0,1,199.55,18c-11.43,9.85-14.69,23.93-8.78,37.82,3.33,7.82,8.67,14.22,14.12,20.59,24.06,28.18,24.33,68.57.74,96.81-.71.85-1.41,1.73-2.2,2.51-3.92,3.87-8.68,4.3-12.49,1.16-4-3.26-4.52-8.37-.92-12.9a71.18,71.18,0,0,0,13-24.41c5.74-19.52.94-36.71-12.13-51.84C181.1,76.4,172.71,64.34,170.21,49c-2.72-16.69,7.1-38.69,21.41-47.43A8.51,8.51,0,0,1,196.89,0Z"/><path class="cls-1" d="M267.32,179a8.73,8.73,0,0,1-7.37-5.3c-1.7-3.67-.79-6.89,1.61-9.84a67.74,67.74,0,0,0,14.2-29.29c3.67-17.75-1.65-33.07-13.15-46.5C253,76.79,244.48,65,241.86,49.89c-3-17.18,6.22-38.68,20.92-48.12,4.27-2.75,9-2.19,12.05,1.42C278,7,277.65,12,273.86,15.7c-.92.91-2,1.63-3,2.49-11.24,9.72-14.46,23.61-8.76,37.34,3.34,8,8.83,14.55,14.39,21.08a74.67,74.67,0,0,1,.14,97.25C274.26,176.61,271.78,179.05,267.32,179Z"/><path class="cls-1" d="M340.69.07c2.5.13,5.38,1.79,6.95,5.43a8.26,8.26,0,0,1-2.29,10.12c-3.35,3-6.71,5.83-9.22,9.61-6.77,10.23-7.11,20.83-2,31.78,3.41,7.33,8.54,13.44,13.74,19.54a74.48,74.48,0,0,1,.94,96.37c-.71.86-1.41,1.73-2.19,2.53-4.06,4.18-9,4.7-12.88,1.41s-4.37-8.35-.75-12.92a73.19,73.19,0,0,0,12-21.26c7.11-20.3,2.91-38.43-10.82-54.57-8.24-9.67-15.87-19.64-19.42-32.16-5.6-19.74,2.25-42.11,19-53.79A10.33,10.33,0,0,1,340.69.07Z"/></svg>