<svg id="Layer_1" data-name="Layer 1" xmlns="http://www.w3.org/2000/svg" viewBox="0 0 359.2 408.63"><defs><style>.cls-1{fill:#ff6e76;}</style></defs><path class="cls-1" d="M.07,408.63c0-6.92.12-13.84-.07-20.75-.07-2.6.66-3.28,3.27-3.26,14.22.13,28.45-.06,42.68.16,3.28.05,4.45-.82,5.06-4.08,5.28-28.18,10.76-56.32,16.2-84.47.14-.77.4-1.51.7-2.61,5.13,4.34,9.91,8.65,15,12.63a175.21,175.21,0,0,0,73.57,34.38c3.71.77,4.5,2.47,4.87,5.7,1.38,11.74,3.13,23.44,4.44,35.19.32,2.9,1.43,3.24,3.93,3.22,14.23-.11,28.46,0,42.69-.12,2.6,0,3.33.65,3.26,3.26-.19,6.91-.07,13.83-.08,20.75Z"/><path class="cls-1" d="M38.3,167.51c0-37.43,11.23-69.12,32.27-97.52,4.57-6.17,4.46-6.25,9.88-.83Q127.26,116,174,162.86c2.18,2.19,3.32,2.31,5.44,0,4.41-4.78,9.1-9.32,13.79-13.85,1.52-1.46,2-2.67,1.21-4.8-5-14-3-26.95,7.53-37.56S225.5,93,239.74,98.07c12.45,4.44,20.23,13.54,22.84,26.43,2.72,13.4-1.18,25.14-11.61,34.06s-22.49,11.54-35.6,6.29c-2.44-1-3.82-.42-5.46,1.3-4.42,4.61-8.88,9.19-13.54,13.54-2.19,2-2.35,3.18-.08,5.43q47.09,46.84,94,93.9a18.3,18.3,0,0,0,2,2c3.09,2.23,2.63,3.61-.42,5.85-17.71,13-36.62,23.43-58,29a153.69,153.69,0,0,1-69.11,2.3c-41.52-8.19-74.64-29.61-99-64.17C51.84,234.2,43.45,212.12,40,188.21A140.8,140.8,0,0,1,38.3,167.51Z"/><path class="cls-1" d="M347.13,131.39c-3.83,0-8.73,1.4-11.16-.44-2-1.51-1-6.9-1.38-10.57-4.45-46.69-40.79-86.23-87-94.58a98,98,0,0,0-17.43-1.75c-2.05,0-2.72-.57-2.67-2.7.15-6.25.14-12.5,0-18.75C227.44.5,228-.07,230.14,0c36.94,1.3,68.32,15,93.73,42,16.8,17.81,27.47,38.9,32.57,62.79a148.33,148.33,0,0,1,2.75,24.53c.1,2.08-.69,2.43-2.49,2.36-3.18-.11-6.38,0-9.57,0Z"/><path class="cls-1" d="M299.05,131.52c-3.71,0-8.37,1.33-10.83-.42-2-1.41-1.21-6.57-1.76-10-4.25-26.46-28.12-47.77-55.14-49-3-.14-4-.84-3.87-4,.28-5.84.17-11.7,0-17.54-.05-2.06.48-2.63,2.63-2.62,32.1.08,64.58,23.14,75.66,53.7a94.4,94.4,0,0,1,5.51,26.78c.15,2.46-.25,3.61-3.08,3.36-3-.27-6.11-.06-9.16-.06Z"/></svg>