<svg width="32" height="40" viewBox="0 0 32 40" fill="none" xmlns="http://www.w3.org/2000/svg">
<path d="M24.7502 37.8171C24.7502 38.3641 24.5329 38.8887 24.1461 39.2755C23.7593 39.6623 23.2347 39.8796 22.6877 39.8796H8.93773C8.39072 39.8796 7.86612 39.6623 7.47933 39.2755C7.09253 38.8887 6.87523 38.3641 6.87523 37.8171C6.87523 37.2701 7.09253 36.7455 7.47933 36.3587C7.86612 35.9719 8.39072 35.7546 8.93773 35.7546H22.6877C23.2347 35.7546 23.7593 35.9719 24.1461 36.3587C24.5329 36.7455 24.7502 37.2701 24.7502 37.8171ZM31.6252 15.8171C31.6315 18.2133 31.0902 20.5794 30.0425 22.7345C28.9949 24.8896 27.4687 26.7769 25.5804 28.2522C25.3247 28.447 25.1169 28.6978 24.973 28.9853C24.8291 29.2727 24.7529 29.5893 24.7502 29.9108V30.2546C24.7502 31.1662 24.3881 32.0406 23.7434 32.6852C23.0988 33.3299 22.2244 33.6921 21.3127 33.6921H10.3127C9.40105 33.6921 8.52671 33.3299 7.88205 32.6852C7.2374 32.0406 6.87523 31.1662 6.87523 30.2546V29.9108C6.87486 29.5947 6.80182 29.2829 6.66175 28.9994C6.52168 28.716 6.31833 28.4686 6.06742 28.2763C4.1843 26.8095 2.65948 24.9336 1.60835 22.7905C0.557212 20.6475 0.00730252 18.2934 0.000232 15.9064C-0.0461743 7.34191 6.87523 0.210813 15.4329 0.00456324C17.5412 -0.0460958 19.6383 0.325479 21.6008 1.09742C23.5633 1.86936 25.3516 3.02607 26.8604 4.49947C28.3692 5.97287 29.568 7.73319 30.3863 9.67684C31.2046 11.6205 31.6258 13.7082 31.6252 15.8171ZM27.5002 15.8171C27.5007 14.2581 27.1893 12.7148 26.5842 11.278C25.9792 9.84116 25.0929 8.53992 23.9774 7.45085C22.8619 6.36177 21.5398 5.50688 20.0889 4.93648C18.638 4.36609 17.0877 4.09174 15.5291 4.12956C9.20586 4.28081 4.09086 9.55222 4.12523 15.8824C4.13112 17.6466 4.53803 19.3863 5.31519 20.9701C6.09234 22.5539 7.21941 23.9403 8.61117 25.0244C9.31232 25.5656 9.88864 26.2514 10.3009 27.0353C10.7132 27.8192 10.9517 28.6827 11.0002 29.5671H20.6424C20.6919 28.681 20.9308 27.8158 21.3429 27.0298C21.755 26.2438 22.3308 25.5553 23.0315 25.0107C24.4272 23.9197 25.5554 22.5243 26.3298 20.931C27.1043 19.3377 27.5046 17.5886 27.5002 15.8171ZM24.0507 14.9027C23.8682 13.3594 23.258 11.8979 22.2889 10.6831C21.3197 9.46824 20.0303 8.54851 18.5662 8.02769C18.0544 7.86048 17.4975 7.90001 17.0145 8.13783C16.5315 8.37565 16.1606 8.79291 15.9811 9.30049C15.8016 9.80807 15.8277 10.3657 16.0538 10.8543C16.2799 11.3429 16.6881 11.7238 17.1912 11.9155C17.9269 12.1734 18.5759 12.632 19.0646 13.2395C19.5533 13.847 19.8623 14.5791 19.9566 15.353C20.0168 15.8968 20.2905 16.3945 20.7176 16.7365C20.9291 16.9058 21.1719 17.0318 21.432 17.1073C21.6922 17.1829 21.9647 17.2064 22.234 17.1766C22.5033 17.1468 22.764 17.0643 23.0014 16.9337C23.2388 16.8031 23.4481 16.6271 23.6174 16.4156C23.7868 16.2041 23.9128 15.9614 23.9883 15.7012C24.0638 15.441 24.0874 15.1685 24.0576 14.8993L24.0507 14.9027Z" fill="white"/>
</svg>
