<svg width="18" height="18" viewBox="0 0 18 18" fill="none" xmlns="http://www.w3.org/2000/svg">
<path d="M17.25 1.125V5.625C17.25 5.92337 17.1315 6.20952 16.9205 6.4205C16.7095 6.63147 16.4234 6.75 16.125 6.75C15.8266 6.75 15.5405 6.63147 15.3295 6.4205C15.1185 6.20952 15 5.92337 15 5.625V3.84375L11.6709 7.17375C11.4596 7.38509 11.1729 7.50383 10.8741 7.50383C10.5752 7.50383 10.2885 7.38509 10.0772 7.17375C9.86584 6.96241 9.74711 6.67576 9.74711 6.37687C9.74711 6.07799 9.86584 5.79134 10.0772 5.58L13.4062 2.25H11.625C11.3266 2.25 11.0405 2.13147 10.8295 1.9205C10.6185 1.70952 10.5 1.42337 10.5 1.125C10.5 0.826631 10.6185 0.540483 10.8295 0.329505C11.0405 0.118526 11.3266 0 11.625 0H16.125C16.4234 0 16.7095 0.118526 16.9205 0.329505C17.1315 0.540483 17.25 0.826631 17.25 1.125ZM5.57906 10.0791L2.25 13.4062V11.625C2.25 11.3266 2.13147 11.0405 1.9205 10.8295C1.70952 10.6185 1.42337 10.5 1.125 10.5C0.826631 10.5 0.540483 10.6185 0.329505 10.8295C0.118526 11.0405 0 11.3266 0 11.625V16.125C0 16.4234 0.118526 16.7095 0.329505 16.9205C0.540483 17.1315 0.826631 17.25 1.125 17.25H5.625C5.92337 17.25 6.20952 17.1315 6.4205 16.9205C6.63147 16.7095 6.75 16.4234 6.75 16.125C6.75 15.8266 6.63147 15.5405 6.4205 15.3295C6.20952 15.1185 5.92337 15 5.625 15H3.84375L7.17375 11.6709C7.38509 11.4596 7.50383 11.1729 7.50383 10.8741C7.50383 10.5752 7.38509 10.2885 7.17375 10.0772C6.96241 9.86584 6.67576 9.74711 6.37687 9.74711C6.07799 9.74711 5.79134 9.86584 5.58 10.0772L5.57906 10.0791ZM16.125 10.5C15.8266 10.5 15.5405 10.6185 15.3295 10.8295C15.1185 11.0405 15 11.3266 15 11.625V13.4062L11.6709 10.0763C11.4596 9.86491 11.1729 9.74617 10.8741 9.74617C10.5752 9.74617 10.2885 9.86491 10.0772 10.0763C9.86584 10.2876 9.74711 10.5742 9.74711 10.8731C9.74711 11.172 9.86584 11.4587 10.0772 11.67L13.4062 15H11.625C11.3266 15 11.0405 15.1185 10.8295 15.3295C10.6185 15.5405 10.5 15.8266 10.5 16.125C10.5 16.4234 10.6185 16.7095 10.8295 16.9205C11.0405 17.1315 11.3266 17.25 11.625 17.25H16.125C16.4234 17.25 16.7095 17.1315 16.9205 16.9205C17.1315 16.7095 17.25 16.4234 17.25 16.125V11.625C17.25 11.3266 17.1315 11.0405 16.9205 10.8295C16.7095 10.6185 16.4234 10.5 16.125 10.5ZM3.84375 2.25H5.625C5.92337 2.25 6.20952 2.13147 6.4205 1.9205C6.63147 1.70952 6.75 1.42337 6.75 1.125C6.75 0.826631 6.63147 0.540483 6.4205 0.329505C6.20952 0.118526 5.92337 0 5.625 0H1.125C0.826631 0 0.540483 0.118526 0.329505 0.329505C0.118526 0.540483 0 0.826631 0 1.125V5.625C0 5.92337 0.118526 6.20952 0.329505 6.4205C0.540483 6.63147 0.826631 6.75 1.125 6.75C1.42337 6.75 1.70952 6.63147 1.9205 6.4205C2.13147 6.20952 2.25 5.92337 2.25 5.625V3.84375L5.57906 7.17375C5.79041 7.38509 6.07705 7.50383 6.37594 7.50383C6.67482 7.50383 6.96147 7.38509 7.17281 7.17375C7.38416 6.96241 7.50289 6.67576 7.50289 6.37687C7.50289 6.07799 7.38416 5.79134 7.17281 5.58L3.84375 2.25Z" fill="white"/>
</svg>
