<svg width="54" height="54" viewBox="0 0 54 54" fill="none" xmlns="http://www.w3.org/2000/svg">
<path d="M39 27C39.0001 27.4851 38.8826 27.9631 38.6575 28.3929C38.4324 28.8226 38.1064 29.1914 37.7075 29.4675L24.7075 38.4675C24.2573 38.7791 23.7304 38.9616 23.1839 38.9952C22.6375 39.0288 22.0922 38.9121 21.6073 38.6579C21.1223 38.4037 20.7162 38.0217 20.4329 37.5532C20.1495 37.0846 19.9999 36.5475 20 36V18C19.9999 17.4525 20.1495 16.9154 20.4329 16.4468C20.7162 15.9783 21.1223 15.5962 21.6073 15.3421C22.0922 15.0879 22.6375 14.9712 23.1839 15.0048C23.7304 15.0384 24.2573 15.2209 24.7075 15.5325L37.7075 24.5325C38.1064 24.8086 38.4324 25.1774 38.6575 25.6071C38.8826 26.0369 39.0001 26.5148 39 27ZM54 27C54 32.3401 52.4165 37.5603 49.4497 42.0004C46.4829 46.4405 42.2661 49.9012 37.3325 51.9447C32.3989 53.9883 26.9701 54.523 21.7326 53.4812C16.4951 52.4394 11.6841 49.8679 7.90813 46.0919C4.13211 42.3159 1.56061 37.5049 0.518809 32.2674C-0.522991 27.0299 0.0116987 21.6012 2.05526 16.6675C4.09883 11.7339 7.55949 7.51712 11.9996 4.55032C16.4397 1.58352 21.6599 0 27 0C34.1584 0.00794056 41.0214 2.85513 46.0831 7.91689C51.1449 12.9786 53.9921 19.8416 54 27ZM48 27C48 22.8466 46.7684 18.7865 44.4609 15.333C42.1534 11.8796 38.8736 9.18797 35.0364 7.59853C31.1991 6.00909 26.9767 5.59322 22.9031 6.40351C18.8295 7.2138 15.0877 9.21385 12.1508 12.1508C9.21387 15.0877 7.21381 18.8295 6.40352 22.9031C5.59323 26.9767 6.0091 31.1991 7.59854 35.0363C9.18798 38.8736 11.8796 42.1534 15.333 44.4609C18.7865 46.7684 22.8466 48 27 48C32.5677 47.994 37.9057 45.7796 41.8427 41.8427C45.7796 37.9057 47.9941 32.5677 48 27Z" fill="white"/>
</svg>
